<?xml version="1.0" encoding="UTF-8"?>
<svg width="3360px" height="1000px" viewBox="0 0 3360 1000" version="1.1" xmlns="http://www.w3.org/2000/svg" xmlns:xlink="http://www.w3.org/1999/xlink">
    <!-- Generator: Sketch 52.5 (67469) - http://www.bohemiancoding.com/sketch -->
    <title>Group 2</title>
    <desc>Created with Sketch.</desc>
    <g id="Page-1" stroke="none" stroke-width="1" fill="none" fill-rule="evenodd">
        <g id="Group-2">
            <rect id="Rectangle" fill="#262626" fill-rule="nonzero" x="0" y="0" width="3360" height="1000"></rect>
            <g id="Group" opacity="0.5" transform="translate(1395.000000, 267.000000)"></g>
            <path d="M1758.16672,501.067234 C1755.1554,496.381954 1748.53049,495.796294 1744.31464,499.895914 L1719.62178,522.736656 C1715.40593,526.250616 1709.38328,526.250616 1705.76969,521.565335 L1645.54322,443.672551 C1641.92963,438.401611 1633.49793,438.987271 1630.4866,444.258211 L1532.31745,595.944159 C1528.70387,601.80076 1532.91972,610 1540.1469,610 L1819.59772,610 C1826.8249,610 1831.64302,601.80076 1827.42717,595.944159 L1758.16672,501.067234 Z" id="Path" fill="#FFFFFF" opacity="0.3"></path>
            <ellipse id="Oval" fill="#FFFFFF" opacity="0.3" cx="1770.5" cy="428" rx="34.5" ry="34"></ellipse>
            <path d="M1946.4,654.598237 L1920.6,654.598237 L1920.6,339.93199 C1920.6,323.463476 1906.8,310.523929 1890.6,310.523929 L1476,310.523929 L1476,285.232997 C1476,275.234257 1467.6,267 1457.4,267 C1447.2,267 1438.8,275.234257 1438.8,285.232997 L1438.8,310.523929 L1413.6,310.523929 C1403.4,310.523929 1395,318.758186 1395,328.756927 C1395,338.755668 1403.4,346.989924 1413.6,346.989924 L1439.4,346.989924 L1439.4,661.06801 C1439.4,677.536524 1453.2,690.476071 1469.4,690.476071 L1883.4,690.476071 L1883.4,715.767003 C1883.4,725.765743 1891.8,734 1902,734 C1912.2,734 1920.6,725.765743 1920.6,715.767003 L1920.6,690.476071 L1946.4,690.476071 C1956.6,690.476071 1965,682.241814 1965,672.243073 C1965,662.244332 1956.6,654.598237 1946.4,654.598237 Z M1482,654.598237 C1478.4,654.598237 1476,651.657431 1476,648.716625 L1476,346.401763 L1877.4,346.401763 C1881,346.401763 1883.4,349.342569 1883.4,352.283375 L1883.4,654.010076 L1482,654.010076 L1482,654.598237 Z" id="Shape" fill="#FFFFFF" fill-rule="nonzero" opacity="0.3"></path>
        </g>
    </g>
</svg>