<?xml version="1.0" encoding="UTF-8"?>
<svg width="700px" height="500px" viewBox="0 0 700 500" version="1.1" xmlns="http://www.w3.org/2000/svg" xmlns:xlink="http://www.w3.org/1999/xlink">
    <!-- Generator: Sketch 52.5 (67469) - http://www.bohemiancoding.com/sketch -->
    <title>Group 2</title>
    <desc>Created with Sketch.</desc>
    <g id="Page-1" stroke="none" stroke-width="1" fill="none" fill-rule="evenodd">
        <g id="Group-2">
            <rect id="Rectangle" fill="#F6F6F6" fill-rule="nonzero" x="0" y="0" width="700" height="500"></rect>
            <g id="Group" opacity="0.5" transform="translate(252.000000, 168.000000)"></g>
            <path d="M377.517357,250.553142 C376.476531,248.899513 374.186712,248.69281 372.729555,250.139734 L364.194777,258.201173 C362.73762,259.441394 360.655966,259.441394 359.406974,257.787765 L338.590442,230.296195 C337.34145,228.435863 334.427136,228.642566 333.386309,230.502898 L299.455362,284.039115 C298.20637,286.10615 299.663527,289 302.161511,289 L398.75022,289 C401.248204,289 402.913527,286.10615 401.45637,284.039115 L377.517357,250.553142 Z" id="Path" fill="#000000"></path>
            <circle id="Oval" fill="#000000" cx="382" cy="225" r="12"></circle>
            <path d="M442.571579,304.945844 L433.654737,304.945844 L433.654737,193.768262 C433.654737,187.949622 428.885263,183.377834 423.286316,183.377834 L279.994737,183.377834 L279.994737,174.442065 C279.994737,170.90932 277.091579,168 273.566316,168 C270.041053,168 267.137895,170.90932 267.137895,174.442065 L267.137895,183.377834 L258.428421,183.377834 C254.903158,183.377834 252,186.287154 252,189.819899 C252,193.352645 254.903158,196.261965 258.428421,196.261965 L267.345263,196.261965 L267.345263,307.231738 C267.345263,313.050378 272.114737,317.622166 277.713684,317.622166 L420.797895,317.622166 L420.797895,326.557935 C420.797895,330.09068 423.701053,333 427.226316,333 C430.751579,333 433.654737,330.09068 433.654737,326.557935 L433.654737,317.622166 L442.571579,317.622166 C446.096842,317.622166 449,314.712846 449,311.180101 C449,307.647355 446.096842,304.945844 442.571579,304.945844 Z M282.068421,304.945844 C280.824211,304.945844 279.994737,303.906801 279.994737,302.867758 L279.994737,196.054156 L418.724211,196.054156 C419.968421,196.054156 420.797895,197.093199 420.797895,198.132242 L420.797895,304.738035 L282.068421,304.738035 L282.068421,304.945844 Z" id="Shape" fill="#000000" fill-rule="nonzero"></path>
        </g>
    </g>
</svg>