<?xml version="1.0" encoding="UTF-8"?>
<svg width="36px" height="45px" viewBox="0 0 36 45" version="1.1" xmlns="http://www.w3.org/2000/svg" xmlns:xlink="http://www.w3.org/1999/xlink">
    <!-- Generator: Sketch 52.5 (67469) - http://www.bohemiancoding.com/sketch -->
    <title>Combined Shape</title>
    <desc>Created with Sketch.</desc>
    <g id="Page-1" stroke="none" stroke-width="1" fill="none" fill-rule="evenodd">
        <g id="marker" fill="#1f2674">
            <path d="M18.023,0 C27.923,0 35.977,8.055 35.996,17.945 C35.996369,19.0895596 35.8865288,20.2314957 35.668,21.355 C35.641,21.527 35.605,21.709 35.551,21.927 C35.2754044,23.1517053 34.8697698,24.3434666 34.341,25.482 C32.505,29.818 28.459,36.564 19.686,43.845 C18.7301594,44.6309751 17.3518406,44.6309751 16.396,43.845 C7.613,36.555 3.568,29.818 1.723,25.445 C1.19618462,24.3163674 0.79381387,23.1337327 0.523,21.918 C0.423,21.528 0.396,21.318 0.396,21.318 C0.0753293139,19.6317964 -0.00446595678,17.9086226 0.159,16.2 C1.014,7.281 8.423,0.317 17.387,0.01 C17.596,0 17.813,0 18.023,0 Z M18.023,8.855 C12.896,8.855 8.732,13.027 8.732,18.145 C8.732,23.264 12.896,27.445 18.022,27.445 C23.15,27.445 27.314,23.273 27.314,18.155 C27.314,13.036 23.15,8.855 18.023,8.855 Z" id="Combined-Shape"></path>
        </g>
    </g>
</svg>
