<?xml version="1.0" encoding="UTF-8"?>
<svg width="34px" height="30px" viewBox="0 0 34 30" version="1.1" xmlns="http://www.w3.org/2000/svg" xmlns:xlink="http://www.w3.org/1999/xlink">
    <!-- Generator: Sketch 52.4 (67378) - http://www.bohemiancoding.com/sketch -->
    <title>Shape</title>
    <desc>Created with Sketch.</desc>
    <g id="Page-1" stroke="none" stroke-width="1" fill="none" fill-rule="evenodd">
        <g id="icon-linkedin-dark" fill="#FFFFFF">
            <path d="M30.796,30 L2.459,30 C1.1,30 -4.4408921e-16,29.036 -4.4408921e-16,27.848 L-4.4408921e-16,2.15 C-4.4408921e-16,0.964 1.1,-1.33226763e-15 2.459,-1.33226763e-15 L30.796,-1.33226763e-15 C32.152,-1.33226763e-15 33.253,0.964 33.253,2.15 L33.253,27.848 C33.253,29.036 32.153,30 30.796,30 Z M5.763,25.058 L10.66,25.058 L10.66,11.514 L5.763,11.514 L5.763,25.058 Z M8.244,4.985 C6.568,4.985 5.474,5.995 5.474,7.325 C5.474,8.624 6.537,9.666 8.18,9.666 L8.211,9.666 C9.919,9.666 10.981,8.624 10.981,7.326 C10.951,5.996 9.919,4.986 8.244,4.986 L8.244,4.985 Z M28.317,17.293 C28.317,13.132 25.9,11.196 22.679,11.196 C20.079,11.196 18.917,12.509 18.267,13.433 L18.267,11.513 L13.37,11.513 C13.435,12.785 13.37,25.058 13.37,25.058 L18.267,25.058 L18.267,17.494 C18.267,17.091 18.298,16.685 18.428,16.397 C18.781,15.588 19.588,14.751 20.94,14.751 C22.713,14.751 23.42,15.993 23.42,17.814 L23.42,25.058 L28.317,25.058 L28.317,17.293 Z" id="Shape"></path>
        </g>
    </g>
</svg>