<svg height="25" viewBox="0 0 33 25" width="33" xmlns="http://www.w3.org/2000/svg"><path d="m32.824 2.96a14.16 14.16 0 0 1 -3.867.993c1.39-.781 2.458-2.019 2.961-3.49a14.14 14.14 0 0 1 -4.278 1.53c-1.227-1.226-2.978-1.993-4.914-1.993-3.719 0-6.736 2.826-6.736 6.31 0 .496.06.979.175 1.44-5.596-.264-10.559-2.777-13.88-6.594a5.982 5.982 0 0 0 -.912 3.174c0 2.187 1.19 4.121 2.996 5.253a7.073 7.073 0 0 1 -3.05-.791v.081c0 3.058 2.32 5.608 5.401 6.188a7.337 7.337 0 0 1 -3.04.11c.856 2.504 3.343 4.33 6.29 4.382-2.305 1.692-5.208 2.7-8.364 2.7-.544 0-1.08-.03-1.606-.088a20.015 20.015 0 0 0 10.323 2.836c12.387 0 19.16-9.619 19.16-17.957 0-.275-.007-.546-.02-.818a13.286 13.286 0 0 0 3.361-3.265z" fill="#2f2f2f" fill-rule="evenodd"/></svg>