<svg height="31" viewBox="0 0 31 31" width="31" xmlns="http://www.w3.org/2000/svg"><path d="m15.5 0c4.21 0 4.737.018 6.39.093 1.65.076 2.777.338 3.763.72a7.597 7.597 0 0 1 2.747 1.789 7.598 7.598 0 0 1 1.787 2.746c.383.986.645 2.113.72 3.762.076 1.654.094 2.181.094 6.391s-.018 4.737-.093 6.39c-.076 1.65-.338 2.777-.72 3.763a7.598 7.598 0 0 1 -1.788 2.746 7.598 7.598 0 0 1 -2.746 1.787c-.986.383-2.113.645-3.762.72-1.654.076-2.181.094-6.391.094s-4.737-.018-6.39-.093c-1.65-.076-2.777-.338-3.763-.72a7.598 7.598 0 0 1 -2.748-1.79 7.597 7.597 0 0 1 -1.787-2.746c-.383-.986-.645-2.113-.72-3.762-.076-1.653-.093-2.18-.093-6.39s.018-4.737.093-6.39c.076-1.65.338-2.777.72-3.763a7.597 7.597 0 0 1 1.789-2.747 7.597 7.597 0 0 1 2.745-1.786c.986-.384 2.113-.645 3.762-.72 1.654-.077 2.181-.094 6.391-.094zm0 2.793c-4.139 0-4.629.016-6.263.09-1.512.07-2.332.322-2.878.534a4.802 4.802 0 0 0 -1.783 1.16 4.802 4.802 0 0 0 -1.16 1.782c-.211.546-.464 1.366-.533 2.878-.074 1.634-.09 2.124-.09 6.263s.016 4.629.09 6.263c.07 1.512.322 2.332.534 2.878.281.724.617 1.24 1.16 1.783a4.802 4.802 0 0 0 1.782 1.16c.546.211 1.366.464 2.878.533 1.634.074 2.124.09 6.263.09s4.63-.016 6.263-.09c1.512-.07 2.332-.322 2.878-.534a4.802 4.802 0 0 0 1.783-1.16 4.802 4.802 0 0 0 1.16-1.782c.211-.546.464-1.366.533-2.878.074-1.634.09-2.124.09-6.263s-.016-4.629-.09-6.263c-.07-1.512-.322-2.332-.534-2.878a4.802 4.802 0 0 0 -1.16-1.783 4.802 4.802 0 0 0 -1.782-1.16c-.546-.211-1.366-.464-2.878-.533-1.634-.074-2.124-.09-6.263-.09zm0 4.748a7.96 7.96 0 1 1 0 15.918 7.96 7.96 0 0 1 0-15.918zm0 13.126a5.167 5.167 0 1 0 0-10.334 5.167 5.167 0 0 0 0 10.334zm10.134-13.44a1.86 1.86 0 1 1 -3.72-.001 1.86 1.86 0 0 1 3.72 0z" fill="#2f2f2f" fill-rule="evenodd"/></svg>