<svg height="30" viewBox="0 0 34 30" width="34" xmlns="http://www.w3.org/2000/svg"><path d="m30.796 30h-28.337c-1.359 0-2.459-.964-2.459-2.152v-25.698c0-1.186 1.1-2.15 2.459-2.15h28.337c1.356 0 2.457.964 2.457 2.15v25.698c0 1.188-1.1 2.152-2.457 2.152zm-25.033-4.942h4.897v-13.544h-4.897zm2.481-20.073c-1.676 0-2.77 1.01-2.77 2.34 0 1.299 1.063 2.341 2.706 2.341h.031c1.708 0 2.77-1.042 2.77-2.34-.03-1.33-1.062-2.34-2.737-2.34zm20.073 12.308c0-4.161-2.417-6.097-5.638-6.097-2.6 0-3.762 1.313-4.412 2.237v-1.92h-4.897c.065 1.272 0 13.545 0 13.545h4.897v-7.564c0-.403.031-.809.161-1.097.353-.809 1.16-1.646 2.512-1.646 1.773 0 2.48 1.242 2.48 3.063v7.244h4.897zm-10.084-3.815c.01-.015.024-.03.034-.045v.045z" fill="#2f2f2f" fill-rule="evenodd"/></svg>