<svg height="37" viewBox="0 0 51 37" width="51" xmlns="http://www.w3.org/2000/svg"><path d="m2.336.588c-.64725128-.01532734-1.25200473.32121376-1.58013601.87933473-.32813127.55812096-.32813127 1.25020958 0 1.80833054.32813128.55812097.93288473.89466207 1.58013601.87933473h46.378c.6472513.01532734 1.2520047-.32121376 1.580136-.87933473.3281313-.55812096.3281313-1.25020958 0-1.80833054-.3281313-.55812097-.9328847-.89466207-1.580136-.87933473zm0 16.054c-.64725128-.0153273-1.25200473.3212138-1.58013601.8793347-.32813127.558121-.32813127 1.2502096 0 1.8083306.32813128.5581209.93288473.894662 1.58013601.8793347h46.378c.6472513.0153273 1.2520047-.3212138 1.580136-.8793347.3281313-.558121.3281313-1.2502096 0-1.8083306-.3281313-.5581209-.9328847-.894662-1.580136-.8793347zm0 16.054c-.64725128-.0153273-1.25200473.3212138-1.58013601.8793347-.32813127.558121-.32813127 1.2502096 0 1.8083306.32813128.5581209.93288473.894662 1.58013601.8793347h46.378c.6472513.0153273 1.2520047-.3212138 1.580136-.8793347.3281313-.558121.3281313-1.2502096 0-1.8083306-.3281313-.5581209-.9328847-.894662-1.580136-.8793347z" fill="#fff"/></svg>