<?xml version="1.0" encoding="UTF-8"?>
<svg width="33px" height="25px" viewBox="0 0 33 25" version="1.1" xmlns="http://www.w3.org/2000/svg" xmlns:xlink="http://www.w3.org/1999/xlink">
    <!-- Generator: Sketch 52.4 (67378) - http://www.bohemiancoding.com/sketch -->
    <title>Path</title>
    <desc>Created with Sketch.</desc>
    <g id="Page-1" stroke="none" stroke-width="1" fill="none" fill-rule="evenodd">
        <g id="icon-twitter-dark" fill="#FFFFFF">
            <path d="M32.824,2.96 C31.5883665,3.47196978 30.2864285,3.8062921 28.957,3.953 C30.347,3.172 31.415,1.934 31.918,0.463 C30.5837926,1.20025989 29.1391483,1.7169279 27.64,1.993 C26.413,0.767 24.662,-1.55431223e-15 22.726,-1.55431223e-15 C19.007,-1.55431223e-15 15.99,2.826 15.99,6.31 C15.99,6.806 16.05,7.289 16.165,7.75 C10.569,7.486 5.606,4.973 2.285,1.156 C1.68919688,2.10746508 1.37315219,3.2073838 1.373,4.33 C1.373,6.517 2.563,8.451 4.369,9.583 C3.30578976,9.55202205 2.26325701,9.28164717 1.319,8.792 L1.319,8.873 C1.319,11.931 3.639,14.481 6.72,15.061 C5.72547879,15.3096396 4.6898905,15.3471115 3.68,15.171 C4.536,17.675 7.023,19.501 9.97,19.553 C7.665,21.245 4.762,22.253 1.606,22.253 C1.062,22.253 0.526,22.223 -1.99840144e-15,22.165 C3.11966296,24.0301164 6.68832455,25.0105218 10.323,25.001 C22.71,25.001 29.483,15.382 29.483,7.044 C29.483,6.769 29.476,6.498 29.463,6.226 C30.767921,5.34538473 31.9059499,4.23986123 32.824,2.961 L32.824,2.96 Z" id="Path"></path>
        </g>
    </g>
</svg>