<svg height="68" viewBox="0 0 220 68" width="220" xmlns="http://www.w3.org/2000/svg"><g fill="#fff" transform=""><path d="m39.7977528 60.2771429c-2.1752809.7285714-3.4606741.9714285-5.141573.9714285-5.3393259 0-7.5146068-2.6714285-7.5146068-9.3742857v-25.5h8.3550562l4.0044944-4.1771428h-12.3595506v-17.97142861c-6.1797752 9.03428571-16.5617977 17.53428571-27.141573 22.14857141h11.1235955v26.4714286c0 6.3628571 1.0876405 9.4714286 4.0539326 11.9485714 2.2741573 1.7485714 5.4382022 2.8171429 8.9483146 2.8171429 4.9932584 0 9.4921348-1.8457143 16.2157303-6.6542857z"/><path d="m70.6966292 22.1971429h-9.1460674v-11.8514286c0-3.2057143.3460674-5.05142859 1.2853933-6.36285716 1.0876404-1.40857143 3.0651685-2.38 5.0921348-2.38 3.3617977 0 4.2516854 1.31142857 4.5483146 6.36285715.1977528 4.08000001.3460674 5.05142861.988764 6.36285711 1.2853933 2.5742857 4.0539326 4.1771429 7.316854 4.1771429 4.3505618 0 7.4157303-2.8171429 7.4157303-6.8 0-6.65428573-7.3168539-11.31714287-17.7483146-11.31714287-7.7123595 0-11.1235955 2.23428571-19.8247191 13.21142857l-10.3325843 12.8228571h5.1910113v28.8028572c0 9.0342857-.7910113 10.2-7.2179776 10.4428571v.8742857h27.8831461v-.9714285c-3.905618-.9714286-4.5977528-2.5742857-4.5977528-10.4428572v-28.8028571h5.3393258"/><path d="m89.9280899 55.1285714v-34.0971428c-2.6202247.7771428-4.9932584 1.1657143-8.8494382 1.1657143h-7.1191011v32.9314285c0 7.5285715-.6426967 9.3742857-3.6089888 10.4428572v.8742857h26.2516854v-.8742857c-5.9325843-.2428572-6.6741573-1.5057143-6.6741573-10.4428572"/><path d="m124.435955 24.5285714h-3.85618v10.54h-2.323595v-10.54h-3.85618v-1.8457143h9.986517v1.8457143z"/><path d="m127.352809 34.7771429c-.642697-.34-1.186517-.8742858-1.532584-1.6028572-.346068-.68-.543821-1.5057143-.543821-2.4771428 0-.9714286.197753-1.7971429.543821-2.4771429.346067-.68.889887-1.2142857 1.532584-1.5542857s1.433708-.5342857 2.274157-.5342857c.84045 0 1.631461.1942857 2.274158.5342857.642696.34 1.186516.8742857 1.532584 1.5542857.346067.68.54382 1.5057143.54382 2.4771429 0 .9714285-.197753 1.7971428-.54382 2.4771428-.346068.68-.889888 1.2142857-1.532584 1.6028572-.642697.34-1.433708.5342857-2.274158.5342857-.840449 0-1.582022-.1942857-2.274157-.5342857zm3.905618-1.8457143c.395506-.4857143.593258-1.2628572.593258-2.2342857 0-.9714286-.197752-1.7-.54382-2.2342858-.395505-.4857142-.889887-.7285714-1.631461-.7285714-.692134 0-1.235955.2428572-1.63146.7285714-.395506.4857143-.593259 1.2628572-.593259 2.2342858 0 .9714285.197753 1.7.593259 2.2342857.395505.5342857.939326.7771428 1.63146.7771428.642697 0 1.186517-.2428571 1.582023-.7771428z"/><path d="m139.168539 26.7628571c.494382-.4371428 1.087641-.6314285 1.779776-.6314285h.247191v1.9914285h-.29663c-.791011 0-1.433707.1942858-1.878651.6314286-.296629.2914286-.543821.68-.642697 1.1171429-.098876.4371428-.148315.9228571-.148315 1.5542857v3.6428571h-2.125842v-8.7428571h1.977528v2.0885714c.296629-.68.642697-1.2142857 1.08764-1.6514286z"/><path d="m144.310112 34.7771429c-.642696-.34-1.186516-.8742858-1.532584-1.6028572-.346067-.68-.54382-1.5057143-.54382-2.4771428 0-.9714286.197753-1.7971429.54382-2.4771429.346068-.68.889888-1.2142857 1.532584-1.5542857.642697-.34 1.433708-.5342857 2.274158-.5342857.840449 0 1.63146.1942857 2.274157.5342857s1.186517.8742857 1.532584 1.5542857c.346068.68.54382 1.5057143.54382 2.4771429 0 .9714285-.197752 1.7971428-.54382 2.4771428-.346067.68-.889887 1.2142857-1.532584 1.6028572-.642697.34-1.433708.5342857-2.274157.5342857-.84045 0-1.582023-.1942857-2.274158-.5342857zm3.905618-1.8457143c.395506-.4857143.593259-1.2628572.593259-2.2342857 0-.9714286-.197753-1.7-.54382-2.2342858-.395506-.4857142-.889888-.7285714-1.631461-.7285714-.692135 0-1.235955.2428572-1.631461.7285714-.395505.4857143-.593258 1.2628572-.593258 2.2342858 0 .9714285.197753 1.7.593258 2.2342857.395506.5342857.939326.7771428 1.631461.7771428.642696 0 1.186517-.2428571 1.582022-.7771428z"/><path d="m153.060674 26.3742857h2.026966v1.7c.593259-1.2628571 1.582023-1.8942857 2.966293-1.8942857.988764 0 1.730337.2914286 2.224719.8742857.494382.5828572.741573 1.4571429.741573 2.6228572v5.3914285h-2.175281v-5.1971428c0-1.36-.54382-2.04-1.680899-2.04-.642697 0-1.137079.2428571-1.483146.68-.346068.4857143-.54382 1.1171428-.54382 1.9428571v4.6142857h-2.125843v-8.6942857z"/><path d="m162.404494 26.3742857h1.582023v-2.1857143l2.125843-.8257143v3.06h2.17528v1.5057143h-2.17528v4.1771429c0 .4857143.098876.8257143.296629 1.02.197753.2428571.54382.34.988764.34.197753 0 .494382-.0485714.889887-.0971429v1.7485715c-.54382.0971428-.988764.1457142-1.483146.1457142-1.038202 0-1.730337-.2428571-2.175281-.7285714-.444943-.4857143-.642696-1.2142857-.642696-2.1371428v-4.5171429h-1.582023z"/><path d="m171.649438 34.7771429c-.642696-.34-1.186517-.8742858-1.532584-1.6028572-.346067-.68-.54382-1.5057143-.54382-2.4771428 0-.9714286.197753-1.7971429.54382-2.4771429s.889888-1.2142857 1.532584-1.5542857c.642697-.34 1.433708-.5342857 2.274158-.5342857.840449 0 1.63146.1942857 2.274157.5342857.642696.34 1.186517.8742857 1.532584 1.5542857s.54382 1.5057143.54382 2.4771429c0 .9714285-.197753 1.7971428-.54382 2.4771428s-.889888 1.2142857-1.532584 1.6028572c-.642697.34-1.433708.5342857-2.274157.5342857-.84045 0-1.582023-.1942857-2.274158-.5342857zm3.905618-1.8457143c.395506-.4857143.593259-1.2628572.593259-2.2342857 0-.9714286-.197753-1.7-.543821-2.2342858-.395505-.4857142-.889887-.7285714-1.63146-.7285714-.692135 0-1.235955.2428572-1.631461.7285714-.395506.4857143-.593258 1.2628572-.593258 2.2342858 0 .9714285.197752 1.7.593258 2.2342857s.939326.7771428 1.631461.7771428c.642696 0 1.186517-.2428571 1.582022-.7771428z"/><path d="m118.157303 40.5571429v3.4485714h5.635955v1.7971428h-5.635955v5.3914286h-2.323595v-12.3857143h8.25618v1.7971429h-5.932585z"/><path d="m126.017978 38.8085714h2.323595v2.1857143h-2.323595zm.098876 3.5942857h2.125843v8.7428572h-2.125843z"/><path d="m131.110112 42.4028571h2.026967v1.7c.593258-1.2628571 1.582022-1.8942857 2.966292-1.8942857.988764 0 1.730337.2914286 2.224719.8742857.494382.5828572.741573 1.4571429.741573 2.6228572v5.3914286h-2.175281v-5.1971429c0-1.36-.54382-2.04-1.680899-2.04-.642696 0-1.137079.2428571-1.483146.68-.346067.4857143-.54382 1.1171429-.54382 1.9428571v4.6142858h-2.125843v-8.6942858z"/><path d="m141.739326 50.66c-.54382-.4857143-.84045-1.1171429-.84045-1.8942857 0-.4371429.098877-.7771429.29663-1.1171429.197752-.34.444943-.6314285.791011-.8257143.296629-.1942857.692135-.34 1.137079-.4857142.444943-.1457143 1.038202-.2428572 1.730337-.34l1.878651-.2428572v-.2428571c0-.6314286-.148314-1.1171429-.395505-1.4085715-.247191-.2914285-.692135-.4371428-1.235955-.4371428-.543821 0-.939326.1457143-1.235955.3885714-.29663.2428572-.494382.6314286-.494382 1.1657143h-2.175281c.049438-.9228571.444943-1.6514286 1.137078-2.1857143s1.631461-.8257143 2.76854-.8257143c1.334831 0 2.274157.2914286 2.916854.8742857.593258.5828572.939325 1.5057143.939325 2.7685715v2.6228571c0 1.1657143.098877 2.0885714.247191 2.72h-2.125842c-.098877-.4857143-.148315-.9714286-.148315-1.5057143-.197753.5342857-.593258.9714286-1.137079 1.2628572-.54382.2914285-1.137078.4371428-1.878651.4371428-.889888-.0485714-1.631461-.2914285-2.175281-.7285714zm4.498876-1.4085714c.395506-.4371429.593259-.9714286.593259-1.6514286v-.5828571l-2.026967.2914285c-.593258.0971429-1.038202.2428572-1.285393.4857143-.296629.2428572-.395505.5342857-.395505.8742857s.148314.68.395505.8742857c.247191.1942858.642697.34 1.137079.34.642696 0 1.186517-.2428571 1.582022-.6314285z"/><path d="m151.577528 42.4028571h2.026966v1.7c.593259-1.2628571 1.582023-1.8942857 2.966293-1.8942857.988764 0 1.730337.2914286 2.224719.8742857.494382.5828572.741573 1.4571429.741573 2.6228572v5.3914286h-2.175281v-5.1971429c0-1.36-.54382-2.04-1.680899-2.04-.642697 0-1.137079.2428571-1.483146.68-.346068.4857143-.54382 1.1171429-.54382 1.9428571v4.6142858h-2.125843v-8.6942858z"/><path d="m163.492135 50.8057143c-.642697-.3885714-1.186517-.9228572-1.532584-1.6028572-.346068-.68-.543821-1.5057142-.543821-2.4285714 0-1.4085714.395506-2.5257143 1.186517-3.3514286.791011-.8257142 1.878652-1.2142857 3.213483-1.2142857 1.087641 0 2.026967.2914286 2.719101.8257143.692135.5342857 1.087641 1.3114286 1.235956 2.3314286l-2.076405.34c-.049438-.5828572-.247191-1.0685714-.593258-1.36-.346068-.2914286-.741573-.4857143-1.285394-.4857143-.642696 0-1.186517.2428571-1.582022.7771429-.395506.5342857-.593259 1.2142857-.593259 2.0885714 0 .9228571.197753 1.6514286.593259 2.1857143.395505.5342857.939326.7771428 1.582022.7771428.543821 0 .988764-.1457143 1.285394-.4857143.346067-.2914285.54382-.7771428.642696-1.4085714l2.026967.3885714c-.148315.9714286-.593259 1.7485715-1.285394 2.2828572-.692135.5828571-1.582022.8257143-2.669663.8257143-.889887.0485714-1.680899-.1457143-2.323595-.4857143z"/><path d="m179.411236 47.3085714h-6.278652c0 .7285715.247191 1.3114286.692135 1.7485715.444944.4371428.988764.6314285 1.680899.6314285.494382 0 .939326-.1457143 1.334831-.3885714.346068-.2428571.642697-.5828571.84045-1.0685714l1.631461.7285714c-.346068.7771429-.84045 1.36-1.483147 1.7485714-.692134.3885715-1.483146.6314286-2.373033.6314286-1.38427 0-2.422472-.3885714-3.213483-1.1657143-.791012-.7771428-1.137079-1.8942857-1.137079-3.3028571 0-1.4571429.395506-2.5742857 1.137079-3.4s1.779775-1.2628572 3.114606-1.2628572c1.285394 0 2.274158.34 3.015731 1.0685715.692135.7285714 1.038202 1.7485714 1.038202 3.06zm-2.125843-1.5057143c0-.7285714-.148314-1.2628571-.494382-1.6028571-.346067-.3885714-.840449-.5828571-1.483146-.5828571-.692135 0-1.186517.1942857-1.582022.6314285-.346068.3885715-.543821.9714286-.593259 1.7h4.152809z"/><path d="m115.883146 67.2228571v-12.3857142h2.323596v12.3857142z"/><path d="m121.173034 58.48h2.026966v1.7c.593258-1.2628571 1.582022-1.8942857 2.966292-1.8942857.988764 0 1.730337.2914286 2.224719.8742857s.741573 1.4571429.741573 2.6228571v5.3914286h-2.175281v-5.1971428c0-1.36-.54382-2.04-1.680899-2.04-.642696 0-1.137078.2428571-1.483146.68-.346067.4857142-.54382 1.1171428-.54382 1.9428571v4.6142857h-2.125842v-8.6942857z"/><path d="m130.516854 58.48h1.582022v-2.1857143l2.125843-.8257143v3.06h2.175281v1.5057143h-2.175281v4.1771429c0 .4857143.098877.8257143.296629 1.02.197753.2428571.543821.34.988764.34.197753 0 .494382-.0485715.889888-.0971429v1.7485714c-.54382.0971429-.988764.1457143-1.483146.1457143-1.038202 0-1.730337-.2428571-2.175281-.7285714s-.642697-1.2142857-.642697-2.1371429v-4.5171428h-1.582022z"/><path d="m145.991011 63.3857143h-6.278651c0 .7285714.247191 1.3114286.692134 1.7485714.444944.4371429.988764.6314286 1.680899.6314286.494382 0 .939326-.1457143 1.334832-.3885714.346067-.2428572.642696-.5828572.840449-1.0685715l1.631461.7285715c-.346068.7771428-.84045 1.36-1.483146 1.7485714-.692135.3885714-1.483146.6314286-2.373034.6314286-1.38427 0-2.422472-.3885715-3.213483-1.1657143-.791011-.7771429-1.137079-1.8942857-1.137079-3.3028572 0-1.4571428.395506-2.5742857 1.137079-3.4s1.779775-1.2628571 3.114607-1.2628571c1.285393 0 2.274157.34 3.01573 1.0685714.692135.7285714 1.038202 1.7485714 1.038202 3.06zm-2.125842-1.5057143c0-.7285714-.148315-1.2628571-.494382-1.6028571-.346068-.3885715-.84045-.5828572-1.483147-.5828572-.692134 0-1.186516.1942857-1.582022.6314286-.346067.3885714-.54382.9714286-.593258 1.7h4.152809z"/><path d="m151.231461 58.9171429c.494382-.4371429 1.08764-.6314286 1.779775-.6314286h.247191v1.9914286h-.296629c-.791011 0-1.433708.1942857-1.878652.6314285-.296629.2914286-.54382.68-.642697 1.1171429-.098876.4371428-.148314.9228571-.148314 1.5542857v3.6428571h-2.125843v-8.7428571h1.977528v2.0885714c.296629-.68.642697-1.2628571 1.087641-1.6514285z"/><path d="m155.038202 58.48h2.026967v1.7c.593258-1.2628571 1.582022-1.8942857 2.966292-1.8942857.988764 0 1.730337.2914286 2.224719.8742857s.741573 1.4571429.741573 2.6228571v5.3914286h-2.175281v-5.1971428c0-1.36-.54382-2.04-1.680899-2.04-.642697 0-1.137079.2428571-1.483146.68-.346067.4857142-.54382 1.1171428-.54382 1.9428571v4.6142857h-2.125843v-8.6942857z"/><path d="m165.667416 66.7371429c-.54382-.4857143-.84045-1.1171429-.84045-1.8942858 0-.4371428.098877-.7771428.29663-1.1171428.197752-.34.444943-.6314286.791011-.8257143.296629-.1942857.692135-.34 1.137078-.4857143.444944-.1457143 1.038203-.2428571 1.730337-.34l1.878652-.2428571v-.2428572c0-.6314285-.148314-1.1171428-.395505-1.4085714s-.692135-.4371429-1.235956-.4371429c-.54382 0-.939325.1457143-1.235955.3885715-.296629.2428571-.494382.6314285-.494382 1.1657143h-2.17528c.049438-.9228572.444943-1.6514286 1.137078-2.1857143s1.631461-.8257143 2.768539-.8257143c1.334832 0 2.274158.2914286 2.916854.8742857.593259.5828571.939326 1.5057143.939326 2.7685714v2.6228572c0 1.1657143.098877 2.0885714.247191 2.72h-2.125842c-.098877-.4857143-.148315-.9714286-.148315-1.5057143-.197753.5342857-.593258.9714286-1.137079 1.2628571-.54382.2914286-1.137078.4371429-1.878651.4371429-.889888-.0485714-1.631461-.2914286-2.175281-.7285714zm4.498876-1.4085715c.395506-.4371428.593259-.9714285.593259-1.6514285v-.5828572l-2.026967.2914286c-.593258.0971428-1.038202.2428571-1.285393.4857143-.296629.2428571-.395506.5342857-.395506.8742857s.148315.68.395506.8742857.642697.34 1.137079.34c.642696 0 1.186517-.2428571 1.582022-.6314286z"/><path d="m174.269663 58.48h1.582022v-2.1857143l2.125843-.8257143v3.06h2.175281v1.5057143h-2.175281v4.1771429c0 .4857143.098876.8257143.296629 1.02.197753.2428571.543821.34.988764.34.197753 0 .494382-.0485715.889888-.0971429v1.7485714c-.54382.0971429-.988764.1457143-1.483146.1457143-1.038202 0-1.730337-.2428571-2.175281-.7285714s-.642697-1.2142857-.642697-2.1371429v-4.5171428h-1.582022z"/><path d="m182.080899 54.8857143h2.323595v2.1857143h-2.323595zm.098876 3.5942857h2.125843v8.7428571h-2.125843z"/><path d="m188.507865 66.8828571c-.642696-.34-1.186517-.8742857-1.532584-1.6028571-.346068-.68-.54382-1.5057143-.54382-2.4771429 0-.9714285.197752-1.7971428.54382-2.4771428.346067-.68.889888-1.2142857 1.532584-1.5542857.642697-.34 1.433708-.5342857 2.274157-.5342857.84045 0 1.631461.1942857 2.274158.5342857.642696.34 1.186517.8742857 1.532584 1.5542857s.54382 1.5057143.54382 2.4771428c0 .9714286-.197753 1.7971429-.54382 2.4771429s-.889888 1.2142857-1.532584 1.6028571c-.642697.34-1.433708.5342858-2.274158.5342858-.840449 0-1.63146-.1457143-2.274157-.5342858zm3.85618-1.7971428c.395506-.4857143.593258-1.2628572.593258-2.2342857 0-.9714286-.197752-1.7-.54382-2.2342857-.395505-.4857143-.889887-.7285715-1.631461-.7285715-.692134 0-1.235955.2428572-1.63146.7285715-.395506.4857142-.593259 1.2628571-.593259 2.2342857 0 .9714285.197753 1.7.593259 2.2342857.395505.5342857.939326.7771428 1.63146.7771428.692135 0 1.235956-.2914285 1.582023-.7771428z"/><path d="m197.258427 58.48h2.026966v1.7c.593259-1.2628571 1.582023-1.8942857 2.966292-1.8942857.988764 0 1.730337.2914286 2.224719.8742857.494383.5828571.741574 1.4571429.741574 2.6228571v5.3914286h-2.175281v-5.1971428c0-1.36-.543821-2.04-1.680899-2.04-.642697 0-1.137079.2428571-1.483146.68-.346068.4857142-.543821 1.1171428-.543821 1.9428571v4.6142857h-2.076404z"/><path d="m207.88764 66.7371429c-.54382-.4857143-.840449-1.1171429-.840449-1.8942858 0-.4371428.098876-.7771428.296629-1.1171428s.444944-.6314286.791011-.8257143c.29663-.1942857.692135-.34 1.137079-.4857143s1.038202-.2428571 1.730337-.34l1.878652-.2428571v-.2428572c0-.6314285-.148315-1.1171428-.395506-1.4085714s-.692135-.4371429-1.235955-.4371429-.939326.1457143-1.235955.3885715c-.296629.2428571-.494382.6314285-.494382 1.1657143h-2.175281c.049438-.9228572.444944-1.6514286 1.137079-2.1857143s1.631461-.8257143 2.768539-.8257143c1.334832 0 2.274158.2914286 2.916854.8742857.593259.5828571.939326 1.5057143.939326 2.7685714v2.6228572c0 1.1657143.098876 2.0885714.247191 2.72h-2.125843c-.098876-.4857143-.148314-.9714286-.148314-1.5057143-.197753.5342857-.593259.9714286-1.137079 1.2628571-.54382.2914286-1.137079.4371429-1.878652.4371429-.889887-.0485714-1.63146-.2914286-2.175281-.7285714zm4.498877-1.4085715c.395505-.4371428.593258-.9714285.593258-1.6514285v-.5828572l-2.026966.2914286c-.593258.0971428-1.038202.2428571-1.285393.4857143-.296629.2428571-.395506.5342857-.395506.8742857s.148315.68.395506.8742857.642696.34 1.137078.34c.642697 0 1.186517-.2428571 1.582023-.6314286z"/><path d="m219.950562 67.2228571h-2.125843v-12.6771428h2.125843z"/><path d="m39.7977528 60.2771429c-2.1752809.7285714-3.4606741.9714285-5.141573.9714285-5.3393259 0-7.5146068-2.6714285-7.5146068-9.3742857v-25.5h8.3550562l4.0044944-4.1771428h-12.3595506v-17.97142861c-6.1797752 9.03428571-16.5617977 17.53428571-27.141573 22.14857141h11.1235955v26.4714286c0 6.3628571 1.0876405 9.4714286 4.0539326 11.9485714 2.2741573 1.7485714 5.4382022 2.8171429 8.9483146 2.8171429 4.9932584 0 9.4921348-1.8457143 16.2157303-6.6542857z"/><path d="m70.6966292 22.1971429h-9.1460674v-11.8514286c0-3.2057143.3460674-5.05142859 1.2853933-6.36285716 1.0876404-1.40857143 3.0651685-2.38 5.0921348-2.38 3.3617977 0 4.2516854 1.31142857 4.5483146 6.36285715.1977528 4.08000001.3460674 5.05142861.988764 6.36285711 1.2853933 2.5742857 4.0539326 4.1771429 7.316854 4.1771429 4.3505618 0 7.4157303-2.8171429 7.4157303-6.8 0-6.65428573-7.3168539-11.31714287-17.7483146-11.31714287-7.7123595 0-11.1235955 2.23428571-19.8247191 13.21142857l-10.3325843 12.8228571h5.1910113v28.8028572c0 9.0342857-.7910113 10.2-7.2179776 10.4428571v.8742857h27.8831461v-.9714285c-3.905618-.9714286-4.5977528-2.5742857-4.5977528-10.4428572v-28.8028571h5.3393258"/><path d="m89.9280899 55.1285714v-34.0971428c-2.6202247.7771428-4.9932584 1.1657143-8.8494382 1.1657143h-7.1191011v32.9314285c0 7.5285715-.6426967 9.3742857-3.6089888 10.4428572v.8742857h26.2516854v-.8742857c-5.9325843-.2428572-6.6741573-1.5057143-6.6741573-10.4428572"/><path d="m124.435955 24.5285714h-3.85618v10.54h-2.323595v-10.54h-3.85618v-1.8457143h9.986517v1.8457143z"/><path d="m127.352809 34.7771429c-.642697-.34-1.186517-.8742858-1.532584-1.6028572-.346068-.68-.543821-1.5057143-.543821-2.4771428 0-.9714286.197753-1.7971429.543821-2.4771429.346067-.68.889887-1.2142857 1.532584-1.5542857s1.433708-.5342857 2.274157-.5342857c.84045 0 1.631461.1942857 2.274158.5342857.642696.34 1.186516.8742857 1.532584 1.5542857.346067.68.54382 1.5057143.54382 2.4771429 0 .9714285-.197753 1.7971428-.54382 2.4771428-.346068.68-.889888 1.2142857-1.532584 1.6028572-.642697.34-1.433708.5342857-2.274158.5342857-.840449 0-1.582022-.1942857-2.274157-.5342857zm3.905618-1.8457143c.395506-.4857143.593258-1.2628572.593258-2.2342857 0-.9714286-.197752-1.7-.54382-2.2342858-.395505-.4857142-.889887-.7285714-1.631461-.7285714-.692134 0-1.235955.2428572-1.63146.7285714-.395506.4857143-.593259 1.2628572-.593259 2.2342858 0 .9714285.197753 1.7.593259 2.2342857.395505.5342857.939326.7771428 1.63146.7771428.642697 0 1.186517-.2428571 1.582023-.7771428z"/><path d="m139.168539 26.7628571c.494382-.4371428 1.087641-.6314285 1.779776-.6314285h.247191v1.9914285h-.29663c-.791011 0-1.433707.1942858-1.878651.6314286-.296629.2914286-.543821.68-.642697 1.1171429-.098876.4371428-.148315.9228571-.148315 1.5542857v3.6428571h-2.125842v-8.7428571h1.977528v2.0885714c.296629-.68.642697-1.2142857 1.08764-1.6514286z"/><path d="m144.310112 34.7771429c-.642696-.34-1.186516-.8742858-1.532584-1.6028572-.346067-.68-.54382-1.5057143-.54382-2.4771428 0-.9714286.197753-1.7971429.54382-2.4771429.346068-.68.889888-1.2142857 1.532584-1.5542857.642697-.34 1.433708-.5342857 2.274158-.5342857.840449 0 1.63146.1942857 2.274157.5342857s1.186517.8742857 1.532584 1.5542857c.346068.68.54382 1.5057143.54382 2.4771429 0 .9714285-.197752 1.7971428-.54382 2.4771428-.346067.68-.889887 1.2142857-1.532584 1.6028572-.642697.34-1.433708.5342857-2.274157.5342857-.84045 0-1.582023-.1942857-2.274158-.5342857zm3.905618-1.8457143c.395506-.4857143.593259-1.2628572.593259-2.2342857 0-.9714286-.197753-1.7-.54382-2.2342858-.395506-.4857142-.889888-.7285714-1.631461-.7285714-.692135 0-1.235955.2428572-1.631461.7285714-.395505.4857143-.593258 1.2628572-.593258 2.2342858 0 .9714285.197753 1.7.593258 2.2342857.395506.5342857.939326.7771428 1.631461.7771428.642696 0 1.186517-.2428571 1.582022-.7771428z"/><path d="m153.060674 26.3742857h2.026966v1.7c.593259-1.2628571 1.582023-1.8942857 2.966293-1.8942857.988764 0 1.730337.2914286 2.224719.8742857.494382.5828572.741573 1.4571429.741573 2.6228572v5.3914285h-2.175281v-5.1971428c0-1.36-.54382-2.04-1.680899-2.04-.642697 0-1.137079.2428571-1.483146.68-.346068.4857143-.54382 1.1171428-.54382 1.9428571v4.6142857h-2.125843v-8.6942857z"/><path d="m162.404494 26.3742857h1.582023v-2.1857143l2.125843-.8257143v3.06h2.17528v1.5057143h-2.17528v4.1771429c0 .4857143.098876.8257143.296629 1.02.197753.2428571.54382.34.988764.34.197753 0 .494382-.0485714.889887-.0971429v1.7485715c-.54382.0971428-.988764.1457142-1.483146.1457142-1.038202 0-1.730337-.2428571-2.175281-.7285714-.444943-.4857143-.642696-1.2142857-.642696-2.1371428v-4.5171429h-1.582023z"/><path d="m171.649438 34.7771429c-.642696-.34-1.186517-.8742858-1.532584-1.6028572-.346067-.68-.54382-1.5057143-.54382-2.4771428 0-.9714286.197753-1.7971429.54382-2.4771429s.889888-1.2142857 1.532584-1.5542857c.642697-.34 1.433708-.5342857 2.274158-.5342857.840449 0 1.63146.1942857 2.274157.5342857.642696.34 1.186517.8742857 1.532584 1.5542857s.54382 1.5057143.54382 2.4771429c0 .9714285-.197753 1.7971428-.54382 2.4771428s-.889888 1.2142857-1.532584 1.6028572c-.642697.34-1.433708.5342857-2.274157.5342857-.84045 0-1.582023-.1942857-2.274158-.5342857zm3.905618-1.8457143c.395506-.4857143.593259-1.2628572.593259-2.2342857 0-.9714286-.197753-1.7-.543821-2.2342858-.395505-.4857142-.889887-.7285714-1.63146-.7285714-.692135 0-1.235955.2428572-1.631461.7285714-.395506.4857143-.593258 1.2628572-.593258 2.2342858 0 .9714285.197752 1.7.593258 2.2342857s.939326.7771428 1.631461.7771428c.642696 0 1.186517-.2428571 1.582022-.7771428z"/><path d="m118.157303 40.5571429v3.4485714h5.635955v1.7971428h-5.635955v5.3914286h-2.323595v-12.3857143h8.25618v1.7971429h-5.932585z"/><path d="m126.017978 38.8085714h2.323595v2.1857143h-2.323595zm.098876 3.5942857h2.125843v8.7428572h-2.125843z"/><path d="m131.110112 42.4028571h2.026967v1.7c.593258-1.2628571 1.582022-1.8942857 2.966292-1.8942857.988764 0 1.730337.2914286 2.224719.8742857.494382.5828572.741573 1.4571429.741573 2.6228572v5.3914286h-2.175281v-5.1971429c0-1.36-.54382-2.04-1.680899-2.04-.642696 0-1.137079.2428571-1.483146.68-.346067.4857143-.54382 1.1171429-.54382 1.9428571v4.6142858h-2.125843v-8.6942858z"/><path d="m141.739326 50.66c-.54382-.4857143-.84045-1.1171429-.84045-1.8942857 0-.4371429.098877-.7771429.29663-1.1171429.197752-.34.444943-.6314285.791011-.8257143.296629-.1942857.692135-.34 1.137079-.4857142.444943-.1457143 1.038202-.2428572 1.730337-.34l1.878651-.2428572v-.2428571c0-.6314286-.148314-1.1171429-.395505-1.4085715-.247191-.2914285-.692135-.4371428-1.235955-.4371428-.543821 0-.939326.1457143-1.235955.3885714-.29663.2428572-.494382.6314286-.494382 1.1657143h-2.175281c.049438-.9228571.444943-1.6514286 1.137078-2.1857143s1.631461-.8257143 2.76854-.8257143c1.334831 0 2.274157.2914286 2.916854.8742857.593258.5828572.939325 1.5057143.939325 2.7685715v2.6228571c0 1.1657143.098877 2.0885714.247191 2.72h-2.125842c-.098877-.4857143-.148315-.9714286-.148315-1.5057143-.197753.5342857-.593258.9714286-1.137079 1.2628572-.54382.2914285-1.137078.4371428-1.878651.4371428-.889888-.0485714-1.631461-.2914285-2.175281-.7285714zm4.498876-1.4085714c.395506-.4371429.593259-.9714286.593259-1.6514286v-.5828571l-2.026967.2914285c-.593258.0971429-1.038202.2428572-1.285393.4857143-.296629.2428572-.395505.5342857-.395505.8742857s.148314.68.395505.8742857c.247191.1942858.642697.34 1.137079.34.642696 0 1.186517-.2428571 1.582022-.6314285z"/><path d="m151.577528 42.4028571h2.026966v1.7c.593259-1.2628571 1.582023-1.8942857 2.966293-1.8942857.988764 0 1.730337.2914286 2.224719.8742857.494382.5828572.741573 1.4571429.741573 2.6228572v5.3914286h-2.175281v-5.1971429c0-1.36-.54382-2.04-1.680899-2.04-.642697 0-1.137079.2428571-1.483146.68-.346068.4857143-.54382 1.1171429-.54382 1.9428571v4.6142858h-2.125843v-8.6942858z"/><path d="m163.492135 50.8057143c-.642697-.3885714-1.186517-.9228572-1.532584-1.6028572-.346068-.68-.543821-1.5057142-.543821-2.4285714 0-1.4085714.395506-2.5257143 1.186517-3.3514286.791011-.8257142 1.878652-1.2142857 3.213483-1.2142857 1.087641 0 2.026967.2914286 2.719101.8257143.692135.5342857 1.087641 1.3114286 1.235956 2.3314286l-2.076405.34c-.049438-.5828572-.247191-1.0685714-.593258-1.36-.346068-.2914286-.741573-.4857143-1.285394-.4857143-.642696 0-1.186517.2428571-1.582022.7771429-.395506.5342857-.593259 1.2142857-.593259 2.0885714 0 .9228571.197753 1.6514286.593259 2.1857143.395505.5342857.939326.7771428 1.582022.7771428.543821 0 .988764-.1457143 1.285394-.4857143.346067-.2914285.54382-.7771428.642696-1.4085714l2.026967.3885714c-.148315.9714286-.593259 1.7485715-1.285394 2.2828572-.692135.5828571-1.582022.8257143-2.669663.8257143-.889887.0485714-1.680899-.1457143-2.323595-.4857143z"/><path d="m179.411236 47.3085714h-6.278652c0 .7285715.247191 1.3114286.692135 1.7485715.444944.4371428.988764.6314285 1.680899.6314285.494382 0 .939326-.1457143 1.334831-.3885714.346068-.2428571.642697-.5828571.84045-1.0685714l1.631461.7285714c-.346068.7771429-.84045 1.36-1.483147 1.7485714-.692134.3885715-1.483146.6314286-2.373033.6314286-1.38427 0-2.422472-.3885714-3.213483-1.1657143-.791012-.7771428-1.137079-1.8942857-1.137079-3.3028571 0-1.4571429.395506-2.5742857 1.137079-3.4s1.779775-1.2628572 3.114606-1.2628572c1.285394 0 2.274158.34 3.015731 1.0685715.692135.7285714 1.038202 1.7485714 1.038202 3.06zm-2.125843-1.5057143c0-.7285714-.148314-1.2628571-.494382-1.6028571-.346067-.3885714-.840449-.5828571-1.483146-.5828571-.692135 0-1.186517.1942857-1.582022.6314285-.346068.3885715-.543821.9714286-.593259 1.7h4.152809z"/><path d="m115.883146 67.2228571v-12.3857142h2.323596v12.3857142z"/><path d="m121.173034 58.48h2.026966v1.7c.593258-1.2628571 1.582022-1.8942857 2.966292-1.8942857.988764 0 1.730337.2914286 2.224719.8742857s.741573 1.4571429.741573 2.6228571v5.3914286h-2.175281v-5.1971428c0-1.36-.54382-2.04-1.680899-2.04-.642696 0-1.137078.2428571-1.483146.68-.346067.4857142-.54382 1.1171428-.54382 1.9428571v4.6142857h-2.125842v-8.6942857z"/><path d="m130.516854 58.48h1.582022v-2.1857143l2.125843-.8257143v3.06h2.175281v1.5057143h-2.175281v4.1771429c0 .4857143.098877.8257143.296629 1.02.197753.2428571.543821.34.988764.34.197753 0 .494382-.0485715.889888-.0971429v1.7485714c-.54382.0971429-.988764.1457143-1.483146.1457143-1.038202 0-1.730337-.2428571-2.175281-.7285714s-.642697-1.2142857-.642697-2.1371429v-4.5171428h-1.582022z"/><path d="m145.991011 63.3857143h-6.278651c0 .7285714.247191 1.3114286.692134 1.7485714.444944.4371429.988764.6314286 1.680899.6314286.494382 0 .939326-.1457143 1.334832-.3885714.346067-.2428572.642696-.5828572.840449-1.0685715l1.631461.7285715c-.346068.7771428-.84045 1.36-1.483146 1.7485714-.692135.3885714-1.483146.6314286-2.373034.6314286-1.38427 0-2.422472-.3885715-3.213483-1.1657143-.791011-.7771429-1.137079-1.8942857-1.137079-3.3028572 0-1.4571428.395506-2.5742857 1.137079-3.4s1.779775-1.2628571 3.114607-1.2628571c1.285393 0 2.274157.34 3.01573 1.0685714.692135.7285714 1.038202 1.7485714 1.038202 3.06zm-2.125842-1.5057143c0-.7285714-.148315-1.2628571-.494382-1.6028571-.346068-.3885715-.84045-.5828572-1.483147-.5828572-.692134 0-1.186516.1942857-1.582022.6314286-.346067.3885714-.54382.9714286-.593258 1.7h4.152809z"/><path d="m151.231461 58.9171429c.494382-.4371429 1.08764-.6314286 1.779775-.6314286h.247191v1.9914286h-.296629c-.791011 0-1.433708.1942857-1.878652.6314285-.296629.2914286-.54382.68-.642697 1.1171429-.098876.4371428-.148314.9228571-.148314 1.5542857v3.6428571h-2.125843v-8.7428571h1.977528v2.0885714c.296629-.68.642697-1.2628571 1.087641-1.6514285z"/><path d="m155.038202 58.48h2.026967v1.7c.593258-1.2628571 1.582022-1.8942857 2.966292-1.8942857.988764 0 1.730337.2914286 2.224719.8742857s.741573 1.4571429.741573 2.6228571v5.3914286h-2.175281v-5.1971428c0-1.36-.54382-2.04-1.680899-2.04-.642697 0-1.137079.2428571-1.483146.68-.346067.4857142-.54382 1.1171428-.54382 1.9428571v4.6142857h-2.125843v-8.6942857z"/><path d="m165.667416 66.7371429c-.54382-.4857143-.84045-1.1171429-.84045-1.8942858 0-.4371428.098877-.7771428.29663-1.1171428.197752-.34.444943-.6314286.791011-.8257143.296629-.1942857.692135-.34 1.137078-.4857143.444944-.1457143 1.038203-.2428571 1.730337-.34l1.878652-.2428571v-.2428572c0-.6314285-.148314-1.1171428-.395505-1.4085714s-.692135-.4371429-1.235956-.4371429c-.54382 0-.939325.1457143-1.235955.3885715-.296629.2428571-.494382.6314285-.494382 1.1657143h-2.17528c.049438-.9228572.444943-1.6514286 1.137078-2.1857143s1.631461-.8257143 2.768539-.8257143c1.334832 0 2.274158.2914286 2.916854.8742857.593259.5828571.939326 1.5057143.939326 2.7685714v2.6228572c0 1.1657143.098877 2.0885714.247191 2.72h-2.125842c-.098877-.4857143-.148315-.9714286-.148315-1.5057143-.197753.5342857-.593258.9714286-1.137079 1.2628571-.54382.2914286-1.137078.4371429-1.878651.4371429-.889888-.0485714-1.631461-.2914286-2.175281-.7285714zm4.498876-1.4085715c.395506-.4371428.593259-.9714285.593259-1.6514285v-.5828572l-2.026967.2914286c-.593258.0971428-1.038202.2428571-1.285393.4857143-.296629.2428571-.395506.5342857-.395506.8742857s.148315.68.395506.8742857.642697.34 1.137079.34c.642696 0 1.186517-.2428571 1.582022-.6314286z"/><path d="m174.269663 58.48h1.582022v-2.1857143l2.125843-.8257143v3.06h2.175281v1.5057143h-2.175281v4.1771429c0 .4857143.098876.8257143.296629 1.02.197753.2428571.543821.34.988764.34.197753 0 .494382-.0485715.889888-.0971429v1.7485714c-.54382.0971429-.988764.1457143-1.483146.1457143-1.038202 0-1.730337-.2428571-2.175281-.7285714s-.642697-1.2142857-.642697-2.1371429v-4.5171428h-1.582022z"/><path d="m182.080899 54.8857143h2.323595v2.1857143h-2.323595zm.098876 3.5942857h2.125843v8.7428571h-2.125843z"/><path d="m188.507865 66.8828571c-.642696-.34-1.186517-.8742857-1.532584-1.6028571-.346068-.68-.54382-1.5057143-.54382-2.4771429 0-.9714285.197752-1.7971428.54382-2.4771428.346067-.68.889888-1.2142857 1.532584-1.5542857.642697-.34 1.433708-.5342857 2.274157-.5342857.84045 0 1.631461.1942857 2.274158.5342857.642696.34 1.186517.8742857 1.532584 1.5542857s.54382 1.5057143.54382 2.4771428c0 .9714286-.197753 1.7971429-.54382 2.4771429s-.889888 1.2142857-1.532584 1.6028571c-.642697.34-1.433708.5342858-2.274158.5342858-.840449 0-1.63146-.1457143-2.274157-.5342858zm3.85618-1.7971428c.395506-.4857143.593258-1.2628572.593258-2.2342857 0-.9714286-.197752-1.7-.54382-2.2342857-.395505-.4857143-.889887-.7285715-1.631461-.7285715-.692134 0-1.235955.2428572-1.63146.7285715-.395506.4857142-.593259 1.2628571-.593259 2.2342857 0 .9714285.197753 1.7.593259 2.2342857.395505.5342857.939326.7771428 1.63146.7771428.692135 0 1.235956-.2914285 1.582023-.7771428z"/><path d="m197.258427 58.48h2.026966v1.7c.593259-1.2628571 1.582023-1.8942857 2.966292-1.8942857.988764 0 1.730337.2914286 2.224719.8742857.494383.5828571.741574 1.4571429.741574 2.6228571v5.3914286h-2.175281v-5.1971428c0-1.36-.543821-2.04-1.680899-2.04-.642697 0-1.137079.2428571-1.483146.68-.346068.4857142-.543821 1.1171428-.543821 1.9428571v4.6142857h-2.076404z"/><path d="m207.88764 66.7371429c-.54382-.4857143-.840449-1.1171429-.840449-1.8942858 0-.4371428.098876-.7771428.296629-1.1171428s.444944-.6314286.791011-.8257143c.29663-.1942857.692135-.34 1.137079-.4857143s1.038202-.2428571 1.730337-.34l1.878652-.2428571v-.2428572c0-.6314285-.148315-1.1171428-.395506-1.4085714s-.692135-.4371429-1.235955-.4371429-.939326.1457143-1.235955.3885715c-.296629.2428571-.494382.6314285-.494382 1.1657143h-2.175281c.049438-.9228572.444944-1.6514286 1.137079-2.1857143s1.631461-.8257143 2.768539-.8257143c1.334832 0 2.274158.2914286 2.916854.8742857.593259.5828571.939326 1.5057143.939326 2.7685714v2.6228572c0 1.1657143.098876 2.0885714.247191 2.72h-2.125843c-.098876-.4857143-.148314-.9714286-.148314-1.5057143-.197753.5342857-.593259.9714286-1.137079 1.2628571-.54382.2914286-1.137079.4371429-1.878652.4371429-.889887-.0485714-1.63146-.2914286-2.175281-.7285714zm4.498877-1.4085715c.395505-.4371428.593258-.9714285.593258-1.6514285v-.5828572l-2.026966.2914286c-.593258.0971428-1.038202.2428571-1.285393.4857143-.296629.2428571-.395506.5342857-.395506.8742857s.148315.68.395506.8742857.642696.34 1.137078.34c.642697 0 1.186517-.2428571 1.582023-.6314286z"/><path d="m219.950562 67.2228571h-2.125843v-12.6771428h2.125843z"/></g></svg>