<svg height="72" viewBox="0 0 234 72" width="234" xmlns="http://www.w3.org/2000/svg"><g fill="#2a3689" fill-rule="nonzero" transform=""><path d="m42.359582 63.9321877c-2.3153063.77275-3.6834419 1.0303334-5.4725422 1.0303334-5.6830247 0-7.9983311-2.8334169-7.9983311-9.9427174v-27.0462518h8.8928812l4.2622685-4.4304336h-13.1551497v-19.061168c-6.5775748 9.5821007-17.6279006 18.5975179-28.8887087 23.4916016h11.8396347v28.0765852c0 6.7486838 1.1576532 10.0457507 4.3148891 12.6731009 2.4205476 1.8546001 5.7882659 2.9879669 9.5243284 2.9879669 5.3146805 0 10.103155-1.9576335 17.2595564-7.0577839z"/><path d="m75.2474563 23.5431183h-9.7348108v-12.5700676c0-3.40010019.3683442-5.35773365 1.3681356-6.74868375 1.1576531-1.49398343 3.2624771-2.52431683 5.4199217-2.52431683 3.5782007 0 4.5253714 1.39095009 4.841095 6.74868379.2104824 4.32740029.3683442 5.35773369 1.052412 6.74868379 1.3681356 2.7303835 4.3148891 4.4304336 7.7878486 4.4304336 4.6306127 0 7.8930899-2.9879668 7.8930899-7.2123338 0-7.0577838-7.7878487-12.00338414-18.890795-12.00338414-8.2088134 0-11.8396347 2.36976683-21.1008601 14.01253424l-10.9977052 13.600401h5.5251629v30.5493854c0 9.5821006-.8419296 10.8185007-7.6826074 11.076084v.9273001h29.6780177v-1.0303334c-4.1570273-1.0303334-4.8937157-2.7303835-4.8937157-11.0760841v-30.5493854h5.6830247"/><path d="m95.7168692 58.4714206v-36.1647024c-2.7888917.8242667-5.3146805 1.2364001-9.4190872 1.2364001h-7.5773662v34.9283023c0 7.9850839-.6840678 9.9427174-3.8413037 11.0760841v.9273001h27.9415379v-.9273001c-6.3144718-.2575833-7.1037808-1.5970168-7.1037808-11.0760841"/><path d="m132.446047 26.0159184h-4.104407v11.1791175h-2.473168v-11.1791175h-4.104406v-1.9576334h10.629361v1.9576334z"/><path d="m135.550663 36.8859358c-.684068-.3606167-1.262895-.9273-1.631239-1.7000501-.368344-.7212334-.578827-1.5970168-.578827-2.6273502s.210483-1.9061168.578827-2.6273501c.368344-.7212334.947171-1.2879168 1.631239-1.6485335.684067-.3606167 1.525997-.5666834 2.420547-.5666834s1.73648.2060667 2.420548.5666834c.684067.3606167 1.262894.9273001 1.631238 1.6485335.368344.7212333.578827 1.5970167.578827 2.6273501s-.210483 1.9061168-.578827 2.6273502-.947171 1.2879168-1.631238 1.7000501c-.684068.3606167-1.525998.5666834-2.420548.5666834s-1.683859-.2060667-2.420547-.5666834zm4.157027-1.9576334c.420965-.5151667.631447-1.3394335.631447-2.3697669s-.210482-1.8030834-.578827-2.3697668c-.420964-.5151667-.94717-.77275-1.736479-.77275-.736689 0-1.315515.2575833-1.73648.77275s-.631447 1.3394334-.631447 2.3697668.210482 1.8030835.631447 2.3697669c.420965.5666833.999791.8242667 1.73648.8242667.684067 0 1.262894-.2575834 1.683859-.8242667z"/><path d="m148.126986 28.3856853c.526206-.4636501 1.157653-.6697168 1.894341-.6697168h.263103v2.1121835h-.315723c-.84193 0-1.525998.2060667-1.999583.6697167-.315724.3091001-.578827.7212334-.684068 1.1848834-.105241.4636501-.157862.9788168-.157862 1.6485335v3.8637503h-2.262686v-9.2730007h2.104824v2.2152168c.315724-.7212333.684068-1.2879167 1.157654-1.7515667z"/><path d="m153.599528 36.8859358c-.684068-.3606167-1.262894-.9273-1.631239-1.7000501-.368344-.7212334-.578826-1.5970168-.578826-2.6273502s.210482-1.9061168.578826-2.6273501c.368345-.7212334.947171-1.2879168 1.631239-1.6485335s1.525997-.5666834 2.420547-.5666834c.894551 0 1.73648.2060667 2.420548.5666834s1.262894.9273001 1.631239 1.6485335c.368344.7212333.578826 1.5970167.578826 2.6273501s-.210482 1.9061168-.578826 2.6273502c-.368345.7212334-.947171 1.2879168-1.631239 1.7000501-.684068.3606167-1.525997.5666834-2.420548.5666834-.89455 0-1.683859-.2060667-2.420547-.5666834zm4.157027-1.9576334c.420965-.5151667.631447-1.3394335.631447-2.3697669s-.210482-1.8030834-.578826-2.3697668c-.420965-.5151667-.947171-.77275-1.73648-.77275-.736688 0-1.315515.2575833-1.73648.77275s-.631447 1.3394334-.631447 2.3697668.210482 1.8030835.631447 2.3697669c.420965.5666833.999792.8242667 1.73648.8242667.684068 0 1.262894-.2575834 1.683859-.8242667z"/><path d="m162.913374 27.9735519h2.157444v1.8030834c.631448-1.3394334 1.68386-2.0091501 3.157236-2.0091501 1.052412 0 1.841721.3091 2.367927.9273001.526206.6182.789309 1.5455001.789309 2.7819002v5.7183504h-2.315306v-5.5122838c0-1.4424667-.578827-2.1637001-1.7891-2.1637001-.684068 0-1.210274.2575833-1.578618.7212334-.368345.5151667-.578827 1.1848834-.578827 2.0606668v4.8940837h-2.262686v-9.221484z"/><path d="m172.858667 27.9735519h1.683859v-2.3182502l2.262686-.8757834v3.2455503h2.315306v1.5970167h-2.315306v4.4304337c0 .5151667.105241.8757834.315724 1.08185.210482.2575834.578826.3606167 1.052412.3606167.210482 0 .526206-.0515166.94717-.1030333v1.8546001c-.578826.1030334-1.052412.15455-1.578618.15455-1.105032 0-1.841721-.2575833-2.315306-.77275s-.684068-1.2879168-.684068-2.2667335v-4.7910503h-1.683859z"/><path d="m182.698719 36.8859358c-.684068-.3606167-1.262894-.9273-1.631239-1.7000501-.368344-.7212334-.578826-1.5970168-.578826-2.6273502s.210482-1.9061168.578826-2.6273501c.368345-.7212334.947171-1.2879168 1.631239-1.6485335s1.525997-.5666834 2.420548-.5666834c.89455 0 1.736479.2060667 2.420547.5666834s1.262894.9273001 1.631239 1.6485335c.368344.7212333.578826 1.5970167.578826 2.6273501s-.210482 1.9061168-.578826 2.6273502c-.368345.7212334-.947171 1.2879168-1.631239 1.7000501-.684068.3606167-1.525997.5666834-2.420547.5666834-.894551 0-1.68386-.2060667-2.420548-.5666834zm4.157027-1.9576334c.420965-.5151667.631448-1.3394335.631448-2.3697669s-.210483-1.8030834-.578827-2.3697668c-.420965-.5151667-.947171-.77275-1.73648-.77275-.736688 0-1.315515.2575833-1.73648.77275-.420964.5151667-.631447 1.3394334-.631447 2.3697668s.210483 1.8030835.631447 2.3697669c.420965.5666833.999792.8242667 1.73648.8242667.684068 0 1.262895-.2575834 1.683859-.8242667z"/><path d="m125.763231 43.0164196v3.6576836h5.998748v1.9061168h-5.998748v5.7183503h-2.473168v-13.1367508h8.78764v1.9061167h-6.314472z"/><path d="m134.129906 41.1618195h2.473168v2.3182501h-2.473168zm.105242 3.8122335h2.262685v9.2730007h-2.262685z"/><path d="m139.549828 44.974053h2.157445v1.8030835c.631447-1.3394334 1.683859-2.0091501 3.157235-2.0091501 1.052412 0 1.841721.3091 2.367927.9273.526206.6182001.789309 1.5455001.789309 2.7819002v5.7183504h-2.315306v-5.5122837c0-1.4424668-.578827-2.1637002-1.7891-2.1637002-.684068 0-1.210274.2575834-1.578618.7212334-.368344.5151667-.578827 1.1848834-.578827 2.0606668v4.8940837h-2.262686v-9.221484z"/><path d="m150.863257 53.731887c-.578827-.5151667-.89455-1.1848834-.89455-2.0091502 0-.46365.105241-.8242667.315723-1.1848834.210483-.3606167.473586-.6697167.84193-.8757834.315723-.2060667.736688-.3606167 1.210274-.5151667.473585-.15455 1.105032-.2575833 1.84172-.3606167l1.999583-.2575833v-.2575834c0-.6697167-.157862-1.1848834-.420965-1.4939834s-.736688-.46365-1.315515-.46365c-.578826 0-.999791.15455-1.315514.4121333-.315724.2575834-.526206.6697167-.526206 1.2364001h-2.315307c.052621-.9788167.473586-1.7515668 1.210274-2.3182501.736688-.5666834 1.73648-.8757834 2.946753-.8757834 1.420757 0 2.420548.3091 3.104616.9273.631447.6182001.999791 1.5970168.999791 2.9364502v2.7819002c0 1.2364001.105241 2.2152168.263103 2.8849335h-2.262686c-.105241-.5151667-.157861-1.0303334-.157861-1.5970167-.210483.5666833-.631448 1.0303334-1.210274 1.3394334-.578827.3091-1.210274.46365-1.999583.46365-.947171-.0515166-1.73648-.3091-2.315306-.77275zm4.788474-1.4939835c.420965-.46365.631447-1.0303334.631447-1.7515667v-.6182001l-2.157444.3091c-.631447.1030334-1.105033.2575834-1.368136.5151667-.315723.2575834-.420964.5666834-.420964.9273001s.157861.7212334.420964.9273001c.263103.2060666.684068.3606166 1.210274.3606166.684068 0 1.262894-.2575833 1.683859-.6697167z"/><path d="m161.334756 44.974053h2.157444v1.8030835c.631448-1.3394334 1.68386-2.0091501 3.157236-2.0091501 1.052412 0 1.841721.3091 2.367927.9273.526206.6182001.789309 1.5455001.789309 2.7819002v5.7183504h-2.315306v-5.5122837c0-1.4424668-.578827-2.1637002-1.7891-2.1637002-.684068 0-1.210274.2575834-1.578618.7212334-.368345.5151667-.578827 1.1848834-.578827 2.0606668v4.8940837h-2.262686v-9.221484z"/><path d="m174.01632 53.886437c-.684068-.4121334-1.262894-.9788168-1.631238-1.7000501-.368345-.7212334-.578827-1.5970168-.578827-2.5758335 0-1.4939835.420965-2.6788669 1.262894-3.5546503.84193-.8757834 1.999583-1.2879167 3.420339-1.2879167 1.157654 0 2.157445.3091 2.894133.8757834.736689.5666833 1.157653 1.3909501 1.315515 2.4728001l-2.210065.3606167c-.05262-.6182-.263103-1.1333667-.631447-1.4424667-.368344-.3091001-.789309-.5151668-1.368136-.5151668-.684067 0-1.262894.2575834-1.683859.8242668-.420965.5666833-.631447 1.2879167-.631447 2.2152168 0 .9788167.210482 1.7515668.631447 2.3182501.420965.5666834.999792.8242668 1.683859.8242668.578827 0 1.052412-.15455 1.368136-.5151667.368344-.3091001.578827-.8242668.684068-1.4939835l2.157444.4121334c-.157862 1.0303334-.631447 1.8546001-1.368135 2.4212835-.736689.6182-1.683859.8757834-2.841513.8757834-.94717.0515167-1.7891-.15455-2.473168-.5151667z"/><path d="m190.960153 50.1772367h-6.682816c0 .7727501.263103 1.3909501.736688 1.8546002.473586.46365 1.052412.6697167 1.789101.6697167.526206 0 .999791-.15455 1.420756-.4121334.368344-.2575833.684068-.6182.89455-1.1333667l1.73648.77275c-.368344.8242667-.89455 1.4424668-1.578618 1.8546001-.736688.4121334-1.578618.6697168-2.525789.6697168-1.473377 0-2.578409-.4121334-3.420339-1.2364001-.841929-.8242668-1.210274-2.0091502-1.210274-3.5031336 0-1.5455001.420965-2.7303835 1.210274-3.6061669s1.894342-1.3394334 3.315098-1.3394334c1.368136 0 2.420547.3606167 3.209856 1.1333667.736689.7727501 1.105033 1.8546001 1.105033 3.2455502zm-2.262686-1.5970167c0-.7727501-.157861-1.3394335-.526206-1.7000502-.368344-.4121333-.89455-.6182-1.578618-.6182-.736688 0-1.262894.2060667-1.683859.6697167-.368344.4121334-.578826 1.0303334-.631447 1.8030835h4.42013z"/><path d="m123.342684 71.2990715v-13.1367509h2.473168v13.1367509z"/><path d="m128.973088 62.0260709h2.157444v1.8030834c.631447-1.3394334 1.683859-2.0091501 3.157236-2.0091501 1.052412 0 1.841721.3091 2.367927.9273.526206.6182001.789309 1.5455002.789309 2.7819002v5.7183504h-2.315306v-5.5122837c0-1.4424667-.578827-2.1637001-1.789101-2.1637001-.684067 0-1.210273.2575833-1.578618.7212334-.368344.5151667-.578826 1.1848834-.578826 2.0606668v4.8940836h-2.262686v-9.2214839z"/><path d="m138.918381 62.0260709h1.683859v-2.3182502l2.262686-.8757834v3.2455502h2.315306v1.5970168h-2.315306v4.4304336c0 .5151667.105241.8757834.315723 1.0818501.210483.2575834.578827.3606167 1.052412.3606167.210483 0 .526206-.0515167.947171-.1030333v1.8546001c-.578826.1030333-1.052412.15455-1.578618.15455-1.105032 0-1.841721-.2575833-2.315306-.77275-.473586-.5151668-.684068-1.2879168-.684068-2.2667335v-4.7910504h-1.683859z"/><path d="m155.388628 67.2292546h-6.682816c0 .77275.263103 1.39095.736689 1.8546001.473585.46365 1.052412.6697167 1.7891.6697167.526206 0 .999791-.15455 1.420756-.4121334.368344-.2575833.684068-.6182.89455-1.1333667l1.73648.77275c-.368344.8242668-.89455 1.4424668-1.578618 1.8546002-.736688.4121333-1.578618.6697167-2.525789.6697167-1.473376 0-2.578409-.4121334-3.420339-1.2364001-.841929-.8242667-1.210273-2.0091501-1.210273-3.5031336 0-1.5455001.420964-2.7303835 1.210273-3.6061669s1.894342-1.3394334 3.315098-1.3394334c1.368136 0 2.420548.3606167 3.209857 1.1333667.736688.7727501 1.105032 1.8546002 1.105032 3.2455502zm-2.262685-1.5970168c0-.7727501-.157862-1.3394334-.526206-1.7000501-.368345-.4121334-.894551-.6182001-1.578618-.6182001-.736689 0-1.262895.2060667-1.68386.6697167-.368344.4121334-.578826 1.0303334-.631447 1.8030835h4.420131z"/><path d="m160.966412 62.4897209c.526206-.46365 1.157653-.6697167 1.894341-.6697167h.263103v2.1121835h-.315723c-.84193 0-1.525998.2060666-1.999583.6697167-.315724.3091-.578827.7212334-.684068 1.1848834s-.157862.9788167-.157862 1.6485334v3.8637503h-2.262685v-9.2730006h2.104824v2.2152168c.315723-.7212334.684067-1.3394334 1.157653-1.7515668z"/><path d="m165.018198 62.0260709h2.157444v1.8030834c.631448-1.3394334 1.68386-2.0091501 3.157236-2.0091501 1.052412 0 1.841721.3091 2.367927.9273.526206.6182001.789309 1.5455002.789309 2.7819002v5.7183504h-2.315306v-5.5122837c0-1.4424667-.578827-2.1637001-1.7891-2.1637001-.684068 0-1.210274.2575833-1.578618.7212334-.368345.5151667-.578827 1.1848834-.578827 2.0606668v4.8940836h-2.262686v-9.2214839z"/><path d="m176.331627 70.7839048c-.578827-.5151667-.894551-1.1848834-.894551-2.0091501 0-.4636501.105242-.8242668.315724-1.1848835.210482-.3606166.473585-.6697167.84193-.8757834.315723-.2060666.736688-.3606166 1.210273-.5151667.473586-.15455 1.105033-.2575833 1.841721-.3606166l1.999583-.2575834v-.2575833c0-.6697168-.157862-1.1848835-.420965-1.4939835s-.736688-.46365-1.315515-.46365c-.578826 0-.999791.15455-1.315515.4121334-.315723.2575833-.526206.6697167-.526206 1.2364h-2.315306c.052621-.9788167.473585-1.7515668 1.210274-2.3182501.736688-.5666834 1.73648-.8757834 2.946753-.8757834 1.420756 0 2.420548.3091 3.104616.9273.631447.6182001.999791 1.5970168.999791 2.9364502v2.7819002c0 1.2364001.105241 2.2152169.263103 2.8849336h-2.262686c-.105241-.5151667-.157862-1.0303334-.157862-1.5970168-.210482.5666834-.631447 1.0303334-1.210273 1.3394334-.578827.3091-1.210274.46365-1.999583.46365-.947171-.0515166-1.73648-.3091-2.315306-.77275zm4.788474-1.4939834c.420965-.4636501.631447-1.0303334.631447-1.7515668v-.6182001l-2.157444.3091001c-.631447.1030333-1.105033.2575833-1.368136.5151667-.315723.2575833-.420965.5666833-.420965.9273s.157862.7212334.420965.9273001.684068.3606167 1.210274.3606167c.684068 0 1.262894-.2575834 1.683859-.6697167z"/><path d="m185.487611 62.0260709h1.683859v-2.3182502l2.262686-.8757834v3.2455502h2.315306v1.5970168h-2.315306v4.4304336c0 .5151667.105241.8757834.315723 1.0818501.210483.2575834.578827.3606167 1.052412.3606167.210483 0 .526206-.0515167.947171-.1030333v1.8546001c-.578827.1030333-1.052412.15455-1.578618.15455-1.105033 0-1.841721-.2575833-2.315306-.77275-.473586-.5151668-.684068-1.2879168-.684068-2.2667335v-4.7910504h-1.683859z"/><path d="m193.801665 58.2138373h2.473169v2.3182501h-2.473169zm.105242 3.8122336h2.262685v9.2730006h-2.262685z"/><path d="m200.642343 70.9384548c-.684068-.3606167-1.262894-.9273001-1.631238-1.7000501-.368345-.7212334-.578827-1.5970168-.578827-2.6273502s.210482-1.9061168.578827-2.6273502c.368344-.7212334.94717-1.2879167 1.631238-1.6485334s1.525998-.5666834 2.420548-.5666834 1.73648.2060667 2.420547.5666834c.684068.3606167 1.262895.9273 1.631239 1.6485334s.578826 1.5970168.578826 2.6273502-.210482 1.9061168-.578826 2.6273502-.947171 1.2879167-1.631239 1.7000501c-.684067.3606167-1.525997.5666834-2.420547.5666834s-1.73648-.15455-2.420548-.5666834zm4.104407-1.9061168c.420965-.5151667.631447-1.3394334.631447-2.3697668s-.210482-1.8030835-.578826-2.3697668c-.420965-.5151667-.947171-.7727501-1.73648-.7727501-.736689 0-1.315515.2575834-1.73648.7727501s-.631447 1.3394334-.631447 2.3697668.210482 1.8030834.631447 2.3697668.999791.8242667 1.73648.8242667c.736688 0 1.315515-.3091 1.683859-.8242667z"/><path d="m209.956189 62.0260709h2.157445v1.8030834c.631447-1.3394334 1.683859-2.0091501 3.157236-2.0091501 1.052412 0 1.841721.3091 2.367927.9273.526206.6182001.789309 1.5455002.789309 2.7819002v5.7183504h-2.315307v-5.5122837c0-1.4424667-.578826-2.1637001-1.7891-2.1637001-.684068 0-1.210274.2575833-1.578618.7212334-.368344.5151667-.578827 1.1848834-.578827 2.0606668v4.8940836h-2.210065z"/><path d="m221.269618 70.7839048c-.578827-.5151667-.89455-1.1848834-.89455-2.0091501 0-.4636501.105241-.8242668.315723-1.1848835.210483-.3606166.473586-.6697167.84193-.8757834.315724-.2060666.736688-.3606166 1.210274-.5151667.473585-.15455 1.105032-.2575833 1.841721-.3606166l1.999582-.2575834v-.2575833c0-.6697168-.157861-1.1848835-.420964-1.4939835s-.736689-.46365-1.315515-.46365c-.578827 0-.999792.15455-1.315515.4121334-.315724.2575833-.526206.6697167-.526206 1.2364h-2.315307c.052621-.9788167.473586-1.7515668 1.210274-2.3182501.736689-.5666834 1.73648-.8757834 2.946754-.8757834 1.420756 0 2.420547.3091 3.104615.9273.631447.6182001.999791 1.5970168.999791 2.9364502v2.7819002c0 1.2364001.105242 2.2152169.263103 2.8849336h-2.262685c-.105242-.5151667-.157862-1.0303334-.157862-1.5970168-.210483.5666834-.631447 1.0303334-1.210274 1.3394334s-1.210274.46365-1.999583.46365c-.94717-.0515166-1.736479-.3091-2.315306-.77275zm4.788474-1.4939834c.420965-.4636501.631448-1.0303334.631448-1.7515668v-.6182001l-2.157445.3091001c-.631447.1030333-1.105032.2575833-1.368135.5151667-.315724.2575833-.420965.5666833-.420965.9273s.157862.7212334.420965.9273001.684067.3606167 1.210273.3606167c.684068 0 1.262895-.2575834 1.683859-.6697167z"/><path d="m234.109044 71.2990715h-2.262686v-13.4458509h2.262686z"/><path d="m42.359582 63.9321877c-2.3153063.77275-3.6834419 1.0303334-5.4725422 1.0303334-5.6830247 0-7.9983311-2.8334169-7.9983311-9.9427174v-27.0462518h8.8928812l4.2622685-4.4304336h-13.1551497v-19.061168c-6.5775748 9.5821007-17.6279006 18.5975179-28.8887087 23.4916016h11.8396347v28.0765852c0 6.7486838 1.1576532 10.0457507 4.3148891 12.6731009 2.4205476 1.8546001 5.7882659 2.9879669 9.5243284 2.9879669 5.3146805 0 10.103155-1.9576335 17.2595564-7.0577839z"/><path d="m75.2474563 23.5431183h-9.7348108v-12.5700676c0-3.40010019.3683442-5.35773365 1.3681356-6.74868375 1.1576531-1.49398343 3.2624771-2.52431683 5.4199217-2.52431683 3.5782007 0 4.5253714 1.39095009 4.841095 6.74868379.2104824 4.32740029.3683442 5.35773369 1.052412 6.74868379 1.3681356 2.7303835 4.3148891 4.4304336 7.7878486 4.4304336 4.6306127 0 7.8930899-2.9879668 7.8930899-7.2123338 0-7.0577838-7.7878487-12.00338414-18.890795-12.00338414-8.2088134 0-11.8396347 2.36976683-21.1008601 14.01253424l-10.9977052 13.600401h5.5251629v30.5493854c0 9.5821006-.8419296 10.8185007-7.6826074 11.076084v.9273001h29.6780177v-1.0303334c-4.1570273-1.0303334-4.8937157-2.7303835-4.8937157-11.0760841v-30.5493854h5.6830247"/><path d="m95.7168692 58.4714206v-36.1647024c-2.7888917.8242667-5.3146805 1.2364001-9.4190872 1.2364001h-7.5773662v34.9283023c0 7.9850839-.6840678 9.9427174-3.8413037 11.0760841v.9273001h27.9415379v-.9273001c-6.3144718-.2575833-7.1037808-1.5970168-7.1037808-11.0760841"/><path d="m132.446047 26.0159184h-4.104407v11.1791175h-2.473168v-11.1791175h-4.104406v-1.9576334h10.629361v1.9576334z"/><path d="m135.550663 36.8859358c-.684068-.3606167-1.262895-.9273-1.631239-1.7000501-.368344-.7212334-.578827-1.5970168-.578827-2.6273502s.210483-1.9061168.578827-2.6273501c.368344-.7212334.947171-1.2879168 1.631239-1.6485335.684067-.3606167 1.525997-.5666834 2.420547-.5666834s1.73648.2060667 2.420548.5666834c.684067.3606167 1.262894.9273001 1.631238 1.6485335.368344.7212333.578827 1.5970167.578827 2.6273501s-.210483 1.9061168-.578827 2.6273502-.947171 1.2879168-1.631238 1.7000501c-.684068.3606167-1.525998.5666834-2.420548.5666834s-1.683859-.2060667-2.420547-.5666834zm4.157027-1.9576334c.420965-.5151667.631447-1.3394335.631447-2.3697669s-.210482-1.8030834-.578827-2.3697668c-.420964-.5151667-.94717-.77275-1.736479-.77275-.736689 0-1.315515.2575833-1.73648.77275s-.631447 1.3394334-.631447 2.3697668.210482 1.8030835.631447 2.3697669c.420965.5666833.999791.8242667 1.73648.8242667.684067 0 1.262894-.2575834 1.683859-.8242667z"/><path d="m148.126986 28.3856853c.526206-.4636501 1.157653-.6697168 1.894341-.6697168h.263103v2.1121835h-.315723c-.84193 0-1.525998.2060667-1.999583.6697167-.315724.3091001-.578827.7212334-.684068 1.1848834-.105241.4636501-.157862.9788168-.157862 1.6485335v3.8637503h-2.262686v-9.2730007h2.104824v2.2152168c.315724-.7212333.684068-1.2879167 1.157654-1.7515667z"/><path d="m153.599528 36.8859358c-.684068-.3606167-1.262894-.9273-1.631239-1.7000501-.368344-.7212334-.578826-1.5970168-.578826-2.6273502s.210482-1.9061168.578826-2.6273501c.368345-.7212334.947171-1.2879168 1.631239-1.6485335s1.525997-.5666834 2.420547-.5666834c.894551 0 1.73648.2060667 2.420548.5666834s1.262894.9273001 1.631239 1.6485335c.368344.7212333.578826 1.5970167.578826 2.6273501s-.210482 1.9061168-.578826 2.6273502c-.368345.7212334-.947171 1.2879168-1.631239 1.7000501-.684068.3606167-1.525997.5666834-2.420548.5666834-.89455 0-1.683859-.2060667-2.420547-.5666834zm4.157027-1.9576334c.420965-.5151667.631447-1.3394335.631447-2.3697669s-.210482-1.8030834-.578826-2.3697668c-.420965-.5151667-.947171-.77275-1.73648-.77275-.736688 0-1.315515.2575833-1.73648.77275s-.631447 1.3394334-.631447 2.3697668.210482 1.8030835.631447 2.3697669c.420965.5666833.999792.8242667 1.73648.8242667.684068 0 1.262894-.2575834 1.683859-.8242667z"/><path d="m162.913374 27.9735519h2.157444v1.8030834c.631448-1.3394334 1.68386-2.0091501 3.157236-2.0091501 1.052412 0 1.841721.3091 2.367927.9273001.526206.6182.789309 1.5455001.789309 2.7819002v5.7183504h-2.315306v-5.5122838c0-1.4424667-.578827-2.1637001-1.7891-2.1637001-.684068 0-1.210274.2575833-1.578618.7212334-.368345.5151667-.578827 1.1848834-.578827 2.0606668v4.8940837h-2.262686v-9.221484z"/><path d="m172.858667 27.9735519h1.683859v-2.3182502l2.262686-.8757834v3.2455503h2.315306v1.5970167h-2.315306v4.4304337c0 .5151667.105241.8757834.315724 1.08185.210482.2575834.578826.3606167 1.052412.3606167.210482 0 .526206-.0515166.94717-.1030333v1.8546001c-.578826.1030334-1.052412.15455-1.578618.15455-1.105032 0-1.841721-.2575833-2.315306-.77275s-.684068-1.2879168-.684068-2.2667335v-4.7910503h-1.683859z"/><path d="m182.698719 36.8859358c-.684068-.3606167-1.262894-.9273-1.631239-1.7000501-.368344-.7212334-.578826-1.5970168-.578826-2.6273502s.210482-1.9061168.578826-2.6273501c.368345-.7212334.947171-1.2879168 1.631239-1.6485335s1.525997-.5666834 2.420548-.5666834c.89455 0 1.736479.2060667 2.420547.5666834s1.262894.9273001 1.631239 1.6485335c.368344.7212333.578826 1.5970167.578826 2.6273501s-.210482 1.9061168-.578826 2.6273502c-.368345.7212334-.947171 1.2879168-1.631239 1.7000501-.684068.3606167-1.525997.5666834-2.420547.5666834-.894551 0-1.68386-.2060667-2.420548-.5666834zm4.157027-1.9576334c.420965-.5151667.631448-1.3394335.631448-2.3697669s-.210483-1.8030834-.578827-2.3697668c-.420965-.5151667-.947171-.77275-1.73648-.77275-.736688 0-1.315515.2575833-1.73648.77275-.420964.5151667-.631447 1.3394334-.631447 2.3697668s.210483 1.8030835.631447 2.3697669c.420965.5666833.999792.8242667 1.73648.8242667.684068 0 1.262895-.2575834 1.683859-.8242667z"/><path d="m125.763231 43.0164196v3.6576836h5.998748v1.9061168h-5.998748v5.7183503h-2.473168v-13.1367508h8.78764v1.9061167h-6.314472z"/><path d="m134.129906 41.1618195h2.473168v2.3182501h-2.473168zm.105242 3.8122335h2.262685v9.2730007h-2.262685z"/><path d="m139.549828 44.974053h2.157445v1.8030835c.631447-1.3394334 1.683859-2.0091501 3.157235-2.0091501 1.052412 0 1.841721.3091 2.367927.9273.526206.6182001.789309 1.5455001.789309 2.7819002v5.7183504h-2.315306v-5.5122837c0-1.4424668-.578827-2.1637002-1.7891-2.1637002-.684068 0-1.210274.2575834-1.578618.7212334-.368344.5151667-.578827 1.1848834-.578827 2.0606668v4.8940837h-2.262686v-9.221484z"/><path d="m150.863257 53.731887c-.578827-.5151667-.89455-1.1848834-.89455-2.0091502 0-.46365.105241-.8242667.315723-1.1848834.210483-.3606167.473586-.6697167.84193-.8757834.315723-.2060667.736688-.3606167 1.210274-.5151667.473585-.15455 1.105032-.2575833 1.84172-.3606167l1.999583-.2575833v-.2575834c0-.6697167-.157862-1.1848834-.420965-1.4939834s-.736688-.46365-1.315515-.46365c-.578826 0-.999791.15455-1.315514.4121333-.315724.2575834-.526206.6697167-.526206 1.2364001h-2.315307c.052621-.9788167.473586-1.7515668 1.210274-2.3182501.736688-.5666834 1.73648-.8757834 2.946753-.8757834 1.420757 0 2.420548.3091 3.104616.9273.631447.6182001.999791 1.5970168.999791 2.9364502v2.7819002c0 1.2364001.105241 2.2152168.263103 2.8849335h-2.262686c-.105241-.5151667-.157861-1.0303334-.157861-1.5970167-.210483.5666833-.631448 1.0303334-1.210274 1.3394334-.578827.3091-1.210274.46365-1.999583.46365-.947171-.0515166-1.73648-.3091-2.315306-.77275zm4.788474-1.4939835c.420965-.46365.631447-1.0303334.631447-1.7515667v-.6182001l-2.157444.3091c-.631447.1030334-1.105033.2575834-1.368136.5151667-.315723.2575834-.420964.5666834-.420964.9273001s.157861.7212334.420964.9273001c.263103.2060666.684068.3606166 1.210274.3606166.684068 0 1.262894-.2575833 1.683859-.6697167z"/><path d="m161.334756 44.974053h2.157444v1.8030835c.631448-1.3394334 1.68386-2.0091501 3.157236-2.0091501 1.052412 0 1.841721.3091 2.367927.9273.526206.6182001.789309 1.5455001.789309 2.7819002v5.7183504h-2.315306v-5.5122837c0-1.4424668-.578827-2.1637002-1.7891-2.1637002-.684068 0-1.210274.2575834-1.578618.7212334-.368345.5151667-.578827 1.1848834-.578827 2.0606668v4.8940837h-2.262686v-9.221484z"/><path d="m174.01632 53.886437c-.684068-.4121334-1.262894-.9788168-1.631238-1.7000501-.368345-.7212334-.578827-1.5970168-.578827-2.5758335 0-1.4939835.420965-2.6788669 1.262894-3.5546503.84193-.8757834 1.999583-1.2879167 3.420339-1.2879167 1.157654 0 2.157445.3091 2.894133.8757834.736689.5666833 1.157653 1.3909501 1.315515 2.4728001l-2.210065.3606167c-.05262-.6182-.263103-1.1333667-.631447-1.4424667-.368344-.3091001-.789309-.5151668-1.368136-.5151668-.684067 0-1.262894.2575834-1.683859.8242668-.420965.5666833-.631447 1.2879167-.631447 2.2152168 0 .9788167.210482 1.7515668.631447 2.3182501.420965.5666834.999792.8242668 1.683859.8242668.578827 0 1.052412-.15455 1.368136-.5151667.368344-.3091001.578827-.8242668.684068-1.4939835l2.157444.4121334c-.157862 1.0303334-.631447 1.8546001-1.368135 2.4212835-.736689.6182-1.683859.8757834-2.841513.8757834-.94717.0515167-1.7891-.15455-2.473168-.5151667z"/><path d="m190.960153 50.1772367h-6.682816c0 .7727501.263103 1.3909501.736688 1.8546002.473586.46365 1.052412.6697167 1.789101.6697167.526206 0 .999791-.15455 1.420756-.4121334.368344-.2575833.684068-.6182.89455-1.1333667l1.73648.77275c-.368344.8242667-.89455 1.4424668-1.578618 1.8546001-.736688.4121334-1.578618.6697168-2.525789.6697168-1.473377 0-2.578409-.4121334-3.420339-1.2364001-.841929-.8242668-1.210274-2.0091502-1.210274-3.5031336 0-1.5455001.420965-2.7303835 1.210274-3.6061669s1.894342-1.3394334 3.315098-1.3394334c1.368136 0 2.420547.3606167 3.209856 1.1333667.736689.7727501 1.105033 1.8546001 1.105033 3.2455502zm-2.262686-1.5970167c0-.7727501-.157861-1.3394335-.526206-1.7000502-.368344-.4121333-.89455-.6182-1.578618-.6182-.736688 0-1.262894.2060667-1.683859.6697167-.368344.4121334-.578826 1.0303334-.631447 1.8030835h4.42013z"/><path d="m123.342684 71.2990715v-13.1367509h2.473168v13.1367509z"/><path d="m128.973088 62.0260709h2.157444v1.8030834c.631447-1.3394334 1.683859-2.0091501 3.157236-2.0091501 1.052412 0 1.841721.3091 2.367927.9273.526206.6182001.789309 1.5455002.789309 2.7819002v5.7183504h-2.315306v-5.5122837c0-1.4424667-.578827-2.1637001-1.789101-2.1637001-.684067 0-1.210273.2575833-1.578618.7212334-.368344.5151667-.578826 1.1848834-.578826 2.0606668v4.8940836h-2.262686v-9.2214839z"/><path d="m138.918381 62.0260709h1.683859v-2.3182502l2.262686-.8757834v3.2455502h2.315306v1.5970168h-2.315306v4.4304336c0 .5151667.105241.8757834.315723 1.0818501.210483.2575834.578827.3606167 1.052412.3606167.210483 0 .526206-.0515167.947171-.1030333v1.8546001c-.578826.1030333-1.052412.15455-1.578618.15455-1.105032 0-1.841721-.2575833-2.315306-.77275-.473586-.5151668-.684068-1.2879168-.684068-2.2667335v-4.7910504h-1.683859z"/><path d="m155.388628 67.2292546h-6.682816c0 .77275.263103 1.39095.736689 1.8546001.473585.46365 1.052412.6697167 1.7891.6697167.526206 0 .999791-.15455 1.420756-.4121334.368344-.2575833.684068-.6182.89455-1.1333667l1.73648.77275c-.368344.8242668-.89455 1.4424668-1.578618 1.8546002-.736688.4121333-1.578618.6697167-2.525789.6697167-1.473376 0-2.578409-.4121334-3.420339-1.2364001-.841929-.8242667-1.210273-2.0091501-1.210273-3.5031336 0-1.5455001.420964-2.7303835 1.210273-3.6061669s1.894342-1.3394334 3.315098-1.3394334c1.368136 0 2.420548.3606167 3.209857 1.1333667.736688.7727501 1.105032 1.8546002 1.105032 3.2455502zm-2.262685-1.5970168c0-.7727501-.157862-1.3394334-.526206-1.7000501-.368345-.4121334-.894551-.6182001-1.578618-.6182001-.736689 0-1.262895.2060667-1.68386.6697167-.368344.4121334-.578826 1.0303334-.631447 1.8030835h4.420131z"/><path d="m160.966412 62.4897209c.526206-.46365 1.157653-.6697167 1.894341-.6697167h.263103v2.1121835h-.315723c-.84193 0-1.525998.2060666-1.999583.6697167-.315724.3091-.578827.7212334-.684068 1.1848834s-.157862.9788167-.157862 1.6485334v3.8637503h-2.262685v-9.2730006h2.104824v2.2152168c.315723-.7212334.684067-1.3394334 1.157653-1.7515668z"/><path d="m165.018198 62.0260709h2.157444v1.8030834c.631448-1.3394334 1.68386-2.0091501 3.157236-2.0091501 1.052412 0 1.841721.3091 2.367927.9273.526206.6182001.789309 1.5455002.789309 2.7819002v5.7183504h-2.315306v-5.5122837c0-1.4424667-.578827-2.1637001-1.7891-2.1637001-.684068 0-1.210274.2575833-1.578618.7212334-.368345.5151667-.578827 1.1848834-.578827 2.0606668v4.8940836h-2.262686v-9.2214839z"/><path d="m176.331627 70.7839048c-.578827-.5151667-.894551-1.1848834-.894551-2.0091501 0-.4636501.105242-.8242668.315724-1.1848835.210482-.3606166.473585-.6697167.84193-.8757834.315723-.2060666.736688-.3606166 1.210273-.5151667.473586-.15455 1.105033-.2575833 1.841721-.3606166l1.999583-.2575834v-.2575833c0-.6697168-.157862-1.1848835-.420965-1.4939835s-.736688-.46365-1.315515-.46365c-.578826 0-.999791.15455-1.315515.4121334-.315723.2575833-.526206.6697167-.526206 1.2364h-2.315306c.052621-.9788167.473585-1.7515668 1.210274-2.3182501.736688-.5666834 1.73648-.8757834 2.946753-.8757834 1.420756 0 2.420548.3091 3.104616.9273.631447.6182001.999791 1.5970168.999791 2.9364502v2.7819002c0 1.2364001.105241 2.2152169.263103 2.8849336h-2.262686c-.105241-.5151667-.157862-1.0303334-.157862-1.5970168-.210482.5666834-.631447 1.0303334-1.210273 1.3394334-.578827.3091-1.210274.46365-1.999583.46365-.947171-.0515166-1.73648-.3091-2.315306-.77275zm4.788474-1.4939834c.420965-.4636501.631447-1.0303334.631447-1.7515668v-.6182001l-2.157444.3091001c-.631447.1030333-1.105033.2575833-1.368136.5151667-.315723.2575833-.420965.5666833-.420965.9273s.157862.7212334.420965.9273001.684068.3606167 1.210274.3606167c.684068 0 1.262894-.2575834 1.683859-.6697167z"/><path d="m185.487611 62.0260709h1.683859v-2.3182502l2.262686-.8757834v3.2455502h2.315306v1.5970168h-2.315306v4.4304336c0 .5151667.105241.8757834.315723 1.0818501.210483.2575834.578827.3606167 1.052412.3606167.210483 0 .526206-.0515167.947171-.1030333v1.8546001c-.578827.1030333-1.052412.15455-1.578618.15455-1.105033 0-1.841721-.2575833-2.315306-.77275-.473586-.5151668-.684068-1.2879168-.684068-2.2667335v-4.7910504h-1.683859z"/><path d="m193.801665 58.2138373h2.473169v2.3182501h-2.473169zm.105242 3.8122336h2.262685v9.2730006h-2.262685z"/><path d="m200.642343 70.9384548c-.684068-.3606167-1.262894-.9273001-1.631238-1.7000501-.368345-.7212334-.578827-1.5970168-.578827-2.6273502s.210482-1.9061168.578827-2.6273502c.368344-.7212334.94717-1.2879167 1.631238-1.6485334s1.525998-.5666834 2.420548-.5666834 1.73648.2060667 2.420547.5666834c.684068.3606167 1.262895.9273 1.631239 1.6485334s.578826 1.5970168.578826 2.6273502-.210482 1.9061168-.578826 2.6273502-.947171 1.2879167-1.631239 1.7000501c-.684067.3606167-1.525997.5666834-2.420547.5666834s-1.73648-.15455-2.420548-.5666834zm4.104407-1.9061168c.420965-.5151667.631447-1.3394334.631447-2.3697668s-.210482-1.8030835-.578826-2.3697668c-.420965-.5151667-.947171-.7727501-1.73648-.7727501-.736689 0-1.315515.2575834-1.73648.7727501s-.631447 1.3394334-.631447 2.3697668.210482 1.8030834.631447 2.3697668.999791.8242667 1.73648.8242667c.736688 0 1.315515-.3091 1.683859-.8242667z"/><path d="m209.956189 62.0260709h2.157445v1.8030834c.631447-1.3394334 1.683859-2.0091501 3.157236-2.0091501 1.052412 0 1.841721.3091 2.367927.9273.526206.6182001.789309 1.5455002.789309 2.7819002v5.7183504h-2.315307v-5.5122837c0-1.4424667-.578826-2.1637001-1.7891-2.1637001-.684068 0-1.210274.2575833-1.578618.7212334-.368344.5151667-.578827 1.1848834-.578827 2.0606668v4.8940836h-2.210065z"/><path d="m221.269618 70.7839048c-.578827-.5151667-.89455-1.1848834-.89455-2.0091501 0-.4636501.105241-.8242668.315723-1.1848835.210483-.3606166.473586-.6697167.84193-.8757834.315724-.2060666.736688-.3606166 1.210274-.5151667.473585-.15455 1.105032-.2575833 1.841721-.3606166l1.999582-.2575834v-.2575833c0-.6697168-.157861-1.1848835-.420964-1.4939835s-.736689-.46365-1.315515-.46365c-.578827 0-.999792.15455-1.315515.4121334-.315724.2575833-.526206.6697167-.526206 1.2364h-2.315307c.052621-.9788167.473586-1.7515668 1.210274-2.3182501.736689-.5666834 1.73648-.8757834 2.946754-.8757834 1.420756 0 2.420547.3091 3.104615.9273.631447.6182001.999791 1.5970168.999791 2.9364502v2.7819002c0 1.2364001.105242 2.2152169.263103 2.8849336h-2.262685c-.105242-.5151667-.157862-1.0303334-.157862-1.5970168-.210483.5666834-.631447 1.0303334-1.210274 1.3394334s-1.210274.46365-1.999583.46365c-.94717-.0515166-1.736479-.3091-2.315306-.77275zm4.788474-1.4939834c.420965-.4636501.631448-1.0303334.631448-1.7515668v-.6182001l-2.157445.3091001c-.631447.1030333-1.105032.2575833-1.368135.5151667-.315724.2575833-.420965.5666833-.420965.9273s.157862.7212334.420965.9273001.684067.3606167 1.210273.3606167c.684068 0 1.262895-.2575834 1.683859-.6697167z"/><path d="m234.109044 71.2990715h-2.262686v-13.4458509h2.262686z"/></g></svg>