<svg height="48" viewBox="0 0 66 48" width="66" xmlns="http://www.w3.org/2000/svg"><g fill="#2a3689" fill-rule="nonzero" transform=""><path d="m27.0910396 42.6076667c-1.4807525.515-2.3557426.6866666-3.4999604.6866666-3.6345742 0-5.1153267-1.8883333-5.1153267-6.6263333v-18.025h5.6874356l2.7259307-2.9526667h-8.4133663v-12.7033333c-4.2066832 6.386-11.27391092 12.3943333-18.4757525 15.656h7.5720297v18.7116667c0 4.4976666.74037624 6.695 2.7595842 8.446 1.5480594 1.236 3.7018811 1.9913333 6.0912772 1.9913333 3.399 0 6.4614653-1.3046667 11.0383366-4.7036667z"/><path d="m48.1244554 15.6903333h-6.225891v-8.3773333c0-2.266.2355742-3.57066667.8749901-4.49766667.7403762-.99566666 2.0865148-1.68233333 3.4663069-1.68233333 2.2884356 0 2.894198.927 3.0961188 4.49766667.1346139 2.884.2355743 3.57066666.6730693 4.49766663.8749901 1.8196667 2.7595842 2.9526667 4.9807129 2.9526667 2.9615049 0 5.0480198-1.9913333 5.0480198-4.80666667 0-4.70366666-4.9807129-7.99966666-12.0815941-7.99966666-5.2499406 0-7.5720297 1.57933333-13.4950396 9.33866666l-7.0335742 9.06399997h3.5336138v20.3596667c0 6.386-.5384554 7.21-4.9134059 7.3816667v.618h18.9805544v-.6866667c-2.6586237-.6866667-3.1297722-1.8196667-3.1297722-7.3816667v-20.3596666h3.6345742"/><path d="m61.2156535 38.9683333v-24.102c-1.7836337.5493334-3.399.824-6.0239703.824h-4.846099v23.278c0 5.3216667-.4374951 6.6263334-2.456703 7.3816667v.618h17.8699901v-.618c-4.0384159-.1716667-4.5432178-1.0643333-4.5432178-7.3816667"/></g></svg>